<?xml version="1.0" standalone="no"?>
<!DOCTYPE svg PUBLIC "-//W3C//DTD SVG 20010904//EN"
 "http://www.w3.org/TR/2001/REC-SVG-20010904/DTD/svg10.dtd">
<svg version="1.0" xmlns="http://www.w3.org/2000/svg"
 width="960.000000pt" height="720.000000pt" viewBox="0 0 960.000000 720.000000"
 preserveAspectRatio="xMidYMid meet">
<metadata>
Created by potrace 1.15, written by Peter Selinger 2001-2017
</metadata>
<g transform="translate(0.000000,720.000000) scale(0.100000,-0.100000)"
fill="#000000" stroke="none">
<path d="M490 7192 c0 -19 42 -53 59 -47 50 16 141 -61 141 -119 0 -27 9 -40
51 -76 50 -42 51 -42 35 -12 -9 17 -16 44 -16 59 l0 28 150 -1 c143 0 151 -2
175 -24 13 -12 22 -27 18 -33 -4 -7 14 -8 53 -4 74 7 111 -6 190 -66 51 -38
134 -125 134 -139 0 -10 -60 6 -71 18 -14 17 -42 18 -37 2 5 -15 42 -35 80
-43 30 -6 64 -57 52 -78 -4 -7 -3 -9 1 -4 16 14 55 -92 61 -166 7 -83 -21
-219 -62 -297 -13 -25 -29 -64 -35 -88 -6 -26 -14 -40 -21 -36 -7 4 -6 9 3 15
10 6 8 9 -9 9 l-23 0 26 24 c19 18 27 37 30 71 3 26 8 51 11 57 4 6 -2 5 -15
-1 -27 -15 -27 -7 2 20 15 15 18 23 10 26 -7 3 -13 12 -13 20 0 8 -6 13 -13
10 -7 -3 -21 1 -31 9 -17 12 -18 14 -3 20 23 9 21 24 -3 24 -15 0 -20 -7 -20
-24 0 -14 -11 -37 -25 -52 -14 -15 -25 -33 -25 -40 0 -7 -5 -14 -12 -16 -18
-6 -40 -91 -25 -100 9 -5 8 -14 -5 -35 -9 -15 -23 -31 -30 -34 -7 -3 -28 -13
-46 -22 -30 -15 -33 -15 -50 2 -9 11 -28 21 -42 24 -21 4 -20 4 8 6 37 1 38 4
14 39 -10 15 -22 35 -25 45 -6 15 -14 18 -44 13 -21 -3 -48 -5 -61 -6 -14 0
-21 -4 -16 -11 4 -8 -3 -9 -25 -4 -21 4 -31 3 -31 -5 0 -6 -7 -18 -15 -27 -20
-19 -45 -1 -45 33 0 13 -9 29 -20 36 -11 7 -20 18 -20 24 0 6 -7 17 -15 24
-13 11 -19 9 -38 -7 -34 -31 -78 -35 -100 -10 -15 18 -20 19 -28 7 -8 -13 -12
-12 -24 4 -13 18 -15 18 -15 3 0 -10 -7 -20 -15 -23 -22 -9 -18 -27 5 -21 27
7 25 -4 -6 -38 l-25 -27 26 -28 c20 -20 25 -33 20 -52 -5 -21 -2 -26 17 -32
13 -3 33 -6 45 -6 12 0 26 -7 30 -15 5 -8 20 -16 33 -17 14 -2 27 -6 30 -9 12
-14 94 -27 111 -18 20 10 69 -7 69 -24 0 -5 13 -7 31 -3 21 4 35 1 46 -9 8 -8
23 -15 33 -15 19 0 34 -36 18 -46 -5 -3 -1 -12 9 -19 10 -7 15 -17 11 -21 -4
-4 -2 -14 5 -22 9 -12 9 -16 -1 -19 -6 -3 -10 -9 -6 -14 3 -5 -4 -9 -15 -9
-12 0 -21 -4 -21 -10 0 -6 -30 -11 -67 -11 -38 -1 -58 -4 -45 -6 31 -6 27 -20
-11 -36 -36 -16 -229 -29 -221 -16 3 5 2 9 -3 9 -4 0 -19 3 -32 7 -16 4 -22 2
-18 -4 5 -8 -6 -9 -34 -6 -27 4 -44 2 -49 -7 -5 -8 -9 -9 -14 -1 -4 6 -2 11 3
11 6 0 11 7 11 15 0 27 96 58 110 35 5 -8 18 -10 41 -4 l34 8 -40 12 c-34 11
-36 13 -13 13 26 1 26 2 12 29 -7 15 -14 35 -14 45 0 9 -4 17 -10 17 -5 0 -10
-4 -10 -9 0 -5 -9 -7 -21 -4 -14 4 -17 9 -10 16 8 8 2 16 -21 29 -22 11 -27
17 -15 18 10 0 31 -7 46 -15 16 -8 31 -12 34 -8 8 7 -21 29 -101 77 -35 21
-68 49 -74 62 -6 13 -15 24 -19 24 -23 0 -61 52 -66 89 -6 47 -6 47 -117 31
-38 -6 -86 -20 -107 -32 -47 -26 -105 -103 -91 -121 5 -7 7 -34 5 -62 -3 -27
-6 -60 -7 -72 -2 -32 -13 -29 -32 9 -17 32 -30 228 -15 228 4 0 14 16 23 35
17 39 13 85 -8 85 -8 0 -14 6 -15 13 0 6 -7 -1 -14 -18 -12 -24 -14 -26 -16
-10 -1 11 -1 23 0 28 0 4 -17 7 -39 7 l-40 0 0 -123 c0 -67 5 -138 10 -157 7
-23 7 -36 0 -38 -5 -2 -10 -37 -10 -78 0 -83 -5 -80 86 -63 67 12 93 27 72 40
-9 6 -7 9 8 9 12 0 27 -7 34 -15 7 -8 19 -15 26 -15 8 0 14 -7 14 -16 0 -8 -4
-13 -9 -9 -5 3 -9 -8 -9 -25 1 -24 11 -38 47 -65 25 -19 56 -46 69 -59 18 -20
30 -24 53 -19 16 3 48 1 72 -5 23 -6 76 -16 117 -23 70 -11 117 -29 77 -29 -9
0 -17 -4 -17 -10 0 -5 -6 -10 -13 -10 -7 0 -19 -6 -25 -12 -13 -13 -113 -20
-122 -9 -9 13 -113 51 -136 51 -15 0 -24 6 -24 15 0 9 -12 18 -28 21 -15 3
-32 15 -37 27 -8 18 -17 21 -52 19 -26 -2 -43 1 -43 7 0 6 -10 11 -22 11 -13
0 -49 13 -81 29 l-57 28 0 -468 0 -469 23 -15 c32 -20 49 -77 35 -116 -8 -24
-14 -28 -34 -23 -21 5 -24 3 -24 -20 0 -19 5 -26 19 -26 11 0 21 6 24 13 2 7
20 -4 45 -30 44 -45 49 -47 77 -37 14 6 12 10 -12 30 -15 12 -25 26 -20 30 7
8 102 -7 172 -27 l40 -12 -35 -14 -35 -15 39 -13 c22 -8 62 -19 90 -26 28 -6
73 -22 100 -36 38 -18 52 -21 60 -12 8 9 8 10 0 6 -15 -9 -5 85 10 95 6 4 21
8 32 8 12 0 28 7 35 16 7 9 22 20 34 25 11 6 31 16 45 24 22 13 23 15 5 15
-17 0 -17 2 -5 10 12 8 11 10 -8 10 -12 0 -35 -8 -49 -17 -15 -10 -24 -13 -20
-6 4 7 1 16 -8 20 -13 7 -13 13 -3 36 13 27 23 31 68 28 22 -1 23 0 8 9 -10 6
-18 18 -18 25 0 22 -27 18 -33 -5 -3 -11 -10 -20 -16 -20 -8 0 -9 6 -1 19 13
25 13 44 0 36 -11 -7 -13 6 -4 29 3 9 13 16 21 16 7 0 13 7 11 16 -2 10 3 19
10 21 7 3 10 -1 6 -10 -3 -8 0 -18 7 -23 7 -4 15 -2 17 4 6 18 42 -5 42 -26 0
-10 5 -23 12 -30 18 -18 -3 -14 -24 5 -17 15 -18 15 -18 -9 0 -22 46 -98 67
-111 12 -8 40 16 45 38 3 16 12 20 48 20 46 1 93 21 172 74 82 55 137 73 303
97 88 13 166 24 174 24 10 0 11 3 2 14 -6 7 -36 16 -67 19 -63 7 -98 26 -49
28 l30 1 -27 10 c-16 5 -28 14 -28 19 0 9 16 11 101 10 47 0 47 0 59 43 12 43
12 44 50 39 28 -4 44 -1 55 11 20 20 42 22 26 2 -9 -11 -8 -15 5 -20 29 -11
53 -6 68 15 9 13 19 18 27 13 9 -5 10 -2 6 10 -4 10 -7 22 -7 27 0 4 -7 6 -15
2 -13 -5 -14 -2 -4 21 9 20 17 25 33 20 17 -4 18 -3 6 5 -12 8 -5 14 33 31 62
27 64 54 5 45 -24 -4 -46 -12 -50 -18 -5 -8 -9 -6 -14 6 -3 9 -11 14 -17 10
-6 -4 -7 -1 -3 6 10 16 -22 51 -46 51 -10 0 -18 7 -18 16 0 8 -4 12 -10 9 -6
-4 -10 5 -10 20 0 15 -5 35 -10 46 -7 11 -7 19 -1 19 5 0 11 -5 13 -12 2 -6 3
12 2 41 -2 61 9 70 62 53 38 -11 41 -10 19 11 -13 13 -13 16 0 21 15 5 19 -10
17 -64 -1 -14 1 -19 4 -12 8 17 22 15 28 -5 2 -10 2 -1 -1 20 -3 24 1 55 12
83 17 45 18 46 53 39 53 -10 106 -40 151 -85 22 -22 44 -40 50 -40 17 0 125
-90 139 -116 7 -13 17 -24 22 -24 6 0 10 -11 10 -24 0 -13 9 -35 21 -49 11
-15 21 -39 22 -54 1 -16 8 -34 15 -41 6 -7 12 -25 12 -38 0 -16 4 -23 11 -18
8 4 7 0 -1 -15 -14 -27 -54 -43 -94 -39 -25 2 -31 7 -29 25 4 34 -28 33 -62
-3 -17 -18 -49 -37 -71 -43 -32 -9 -42 -17 -52 -44 -7 -18 -12 -36 -12 -39 0
-13 65 -14 99 -2 23 8 40 9 48 3 7 -7 13 -6 17 0 4 5 -1 14 -11 19 -14 8 -8
11 28 17 24 4 49 5 54 4 6 -2 21 3 34 10 27 15 43 4 35 -26 -5 -19 -45 -40
-68 -34 -5 1 -6 -5 -3 -12 4 -11 0 -13 -15 -9 -17 4 -20 2 -15 -12 6 -14 3
-15 -13 -6 -11 6 -20 15 -20 19 0 13 -51 24 -62 13 -5 -5 11 -18 41 -31 27
-11 52 -25 56 -30 3 -5 33 -25 68 -45 97 -54 117 -78 117 -142 0 -40 -4 -54
-14 -54 -8 0 -16 6 -19 13 -2 6 -7 10 -10 7 -2 -3 15 -41 39 -85 42 -76 44
-78 44 -45 0 19 14 73 30 120 17 47 30 86 30 88 0 2 -13 -6 -29 -17 l-29 -21
-7 23 c-5 12 -11 31 -15 42 -12 36 53 187 156 360 42 70 65 98 105 125 42 28
53 32 67 22 41 -29 66 -33 130 -21 43 9 69 10 79 3 12 -7 23 -3 44 18 35 35
55 35 109 -1 38 -25 47 -27 84 -19 22 5 72 8 111 7 38 -1 113 2 165 6 l95 8
-25 -28 c-14 -15 -33 -30 -43 -34 -31 -12 76 -73 153 -88 42 -9 71 -21 83 -35
25 -30 12 -36 -18 -8 -22 20 -36 24 -102 25 l-77 2 34 -29 c34 -28 49 -32 152
-43 36 -4 65 -14 80 -27 13 -11 37 -31 54 -44 17 -13 50 -53 75 -89 24 -35 47
-65 50 -65 3 0 4 13 1 29 -5 35 9 45 48 36 40 -9 125 -77 146 -116 15 -30 27
-30 37 1 2 8 3 4 1 -10 -1 -14 1 -32 7 -40 7 -12 9 -11 9 5 1 18 2 17 15 -5
14 -24 15 -22 10 30 -3 35 -2 48 3 35 7 -15 10 -7 15 35 4 30 7 73 7 95 1 86
126 196 281 249 58 20 73 29 71 43 -1 10 -3 57 -4 104 -1 81 2 91 46 194 l47
109 -5 114 c-2 62 -7 116 -10 119 -3 4 2 15 11 25 16 18 16 18 -25 0 -46 -21
-62 -32 -44 -32 18 0 15 -82 -4 -108 -14 -20 -42 -22 -29 -2 3 5 -1 15 -10 23
-8 8 -17 33 -21 56 -6 35 -10 41 -31 41 -13 0 -22 -4 -19 -9 3 -5 -1 -14 -9
-21 -8 -7 -15 -19 -15 -26 0 -8 -4 -14 -8 -14 -5 0 -26 -16 -46 -36 -29 -29
-35 -39 -25 -50 9 -11 3 -25 -30 -69 -23 -30 -62 -69 -86 -87 -25 -18 -48 -44
-51 -58 -4 -14 -12 -34 -19 -46 -13 -20 -12 -21 28 -19 88 4 98 5 93 14 -8 12
154 23 189 12 17 -5 25 -10 18 -10 -6 -1 -19 -4 -29 -8 -12 -4 -15 -3 -10 5
10 17 -39 15 -74 -3 -34 -18 -102 -40 -150 -50 -38 -8 -97 -65 -106 -102 -7
-25 -32 -37 -60 -27 -56 18 -74 28 -74 40 0 8 -9 14 -21 14 -13 0 -18 4 -13
12 4 7 3 8 -5 4 -7 -5 -44 0 -84 10 -68 17 -71 18 -45 29 l27 11 -34 18 c-18
10 -36 24 -39 31 -6 15 -39 9 -73 -13 -18 -11 -32 -12 -70 -3 -51 12 -135 25
-268 41 -128 16 -334 69 -412 107 -39 19 -90 37 -113 40 -23 3 -44 12 -47 19
-7 20 -71 54 -88 48 -8 -4 -12 -10 -9 -15 3 -5 -16 -9 -43 -10 -59 -1 -90 -5
-123 -15 l-25 -7 20 22 c19 22 19 23 2 33 -14 7 -17 17 -11 41 4 18 14 37 23
44 14 11 14 12 -4 13 -11 0 -25 10 -30 23 -8 16 -17 21 -38 19 -15 -2 -35 4
-43 13 -8 8 -25 15 -37 15 -24 0 -48 12 -50 26 -1 5 -5 8 -9 6 -20 -6 -5 20
17 30 l25 11 -22 24 c-12 13 -30 23 -40 23 -21 0 -23 11 -6 28 19 19 -9 33
-54 27 -31 -5 -39 -2 -48 16 -18 32 2 43 33 19 27 -21 33 -17 21 14 -3 9 -14
16 -24 16 -31 0 -50 11 -50 30 0 14 -7 18 -25 15 -15 -1 -25 3 -25 11 0 7 -9
19 -21 27 -11 8 -20 21 -19 28 8 54 -2 102 -24 124 -14 13 -28 35 -31 47 -4
13 -12 29 -17 35 -6 7 -10 35 -10 63 0 30 -6 54 -14 61 -16 13 -19 39 -4 39 5
0 7 6 4 14 -3 8 -1 30 5 50 6 25 6 34 -1 30 -19 -12 0 177 27 259 14 43 25 93
25 112 0 19 11 68 24 110 l24 75 -839 0 c-461 0 -839 -4 -839 -8z"/>
<path d="M2473 7183 c3 -13 1 -23 -4 -23 -22 0 -6 -19 29 -33 l37 -16 -40 1
c-22 0 -51 -4 -65 -10 -14 -5 -29 -10 -34 -10 -4 0 -17 -15 -28 -32 -10 -18
-28 -35 -39 -37 -16 -5 -18 -8 -7 -14 10 -7 9 -9 -4 -9 -18 0 -48 -52 -48 -84
0 -12 9 -34 20 -51 11 -16 20 -40 20 -52 0 -48 9 -53 47 -32 24 14 49 19 82
17 31 -2 45 1 44 9 -3 14 49 33 75 26 10 -2 36 3 57 11 40 17 101 21 107 8 2
-5 20 -12 41 -15 34 -5 42 -2 71 28 33 34 34 34 51 15 10 -11 15 -26 12 -34
-3 -8 1 -20 9 -27 16 -13 2 -39 -21 -39 -8 0 -15 -6 -18 -12 -3 -9 -12 -6 -30
10 l-25 24 -18 -61 c-9 -34 -21 -64 -25 -67 -5 -3 -9 -12 -9 -20 0 -8 5 -12
10 -9 6 3 10 -1 10 -10 0 -8 5 -24 12 -34 9 -15 8 -26 -5 -54 -9 -19 -17 -42
-17 -51 0 -9 -4 -16 -10 -16 -5 0 -7 6 -4 14 3 8 1 17 -4 20 -17 10 -58 -11
-118 -59 -34 -28 -62 -44 -71 -40 -37 13 -104 27 -110 22 -9 -9 39 -46 60 -47
21 0 22 -24 1 -81 -11 -31 -14 -62 -10 -102 5 -49 13 -67 48 -112 24 -30 46
-54 50 -54 5 -1 32 16 60 37 51 36 52 37 25 40 -19 2 -33 -4 -51 -25 -13 -15
-26 -26 -28 -23 -1 3 -16 19 -32 37 l-28 32 43 49 c41 48 44 50 93 49 l50 -1
-3 47 c-1 26 3 63 9 83 l12 37 36 -72 c30 -61 34 -76 24 -92 -15 -24 -15 -29
2 -29 8 0 16 7 20 15 9 26 28 17 80 -37 28 -29 46 -46 39 -38 -24 32 -72 170
-78 226 -6 53 8 203 21 239 8 20 87 29 152 19 66 -11 75 -25 27 -44 -43 -17
-45 -30 -5 -30 25 0 30 -5 39 -35 10 -37 35 -64 84 -91 28 -15 28 -15 21 -91
l-7 -75 32 31 c17 17 38 31 46 31 8 0 22 11 30 24 14 20 14 28 3 45 -7 12 -21
24 -30 27 -14 4 -15 9 -6 24 9 14 8 23 -5 44 -9 14 -17 33 -17 42 0 14 -3 14
-16 3 -13 -11 -14 -9 -9 14 9 34 -16 63 -43 48 -14 -8 -25 -3 -51 24 -18 19
-30 39 -26 44 12 20 146 81 211 96 36 8 93 15 127 15 51 0 65 4 77 20 20 28
44 27 35 -2 -21 -68 -18 -85 17 -79 4 0 32 -10 62 -23 50 -22 56 -23 85 -9 37
19 38 23 6 53 -14 13 -25 31 -25 39 0 9 -9 35 -19 57 l-19 42 23 12 c13 7 27
10 32 7 4 -3 31 -1 58 3 41 6 60 4 105 -15 69 -27 151 -84 166 -114 7 -13 17
-28 23 -34 9 -9 11 -6 7 15 -2 15 -8 33 -12 39 -4 8 -3 9 4 5 7 -4 12 -3 12 3
0 5 -6 11 -12 14 -10 3 -10 9 0 26 17 29 15 58 -5 70 -16 10 -16 11 5 17 28 8
28 12 -3 36 -14 11 -23 24 -19 29 3 6 -12 7 -38 3 -24 -4 -41 -5 -38 -2 4 4
110 50 190 82 8 3 -2 4 -24 2 -33 -4 -36 -3 -21 7 15 12 15 14 1 26 -9 8 -16
23 -16 36 0 36 -31 55 -87 55 l-50 0 -6 -66 c-7 -96 -23 -104 -34 -15 -3 28
-11 58 -17 67 -13 18 -46 9 -46 -12 0 -8 -7 -14 -15 -14 -18 0 -18 -5 -5 -29
5 -10 13 -37 19 -59 l9 -41 -32 15 c-17 9 -43 27 -57 41 -34 31 -123 77 -127
64 -2 -5 -11 -7 -22 -4 -10 3 -51 0 -91 -6 -67 -11 -73 -10 -94 9 -12 11 -27
20 -33 20 -7 0 -12 5 -12 10 0 6 -5 10 -12 10 -9 0 -9 -3 0 -12 14 -14 -2 -38
-24 -38 -8 0 -14 -6 -14 -14 0 -8 -5 -17 -10 -19 -6 -3 -5 -4 2 -3 7 2 18 -4
25 -13 18 -24 16 -33 -6 -20 -26 17 -43 7 -65 -36 -17 -31 -18 -38 -5 -46 19
-12 33 -6 37 17 4 18 3 18 -12 -1 -14 -18 -15 -18 -16 -2 0 9 5 17 11 17 6 0
9 7 5 15 -3 8 -1 15 4 15 6 0 10 -7 10 -15 0 -8 5 -15 11 -15 6 0 8 -7 5 -16
-4 -10 -2 -13 6 -8 7 5 9 0 6 -14 -4 -12 -3 -20 2 -17 4 3 10 -1 13 -9 3 -7
29 -16 64 -20 159 -19 153 -19 153 -3 0 21 19 32 33 18 6 -6 19 -11 28 -11 28
0 33 -32 7 -52 -17 -13 -34 -16 -61 -12 -41 5 -103 -4 -93 -14 4 -3 -18 -16
-49 -29 -49 -21 -66 -23 -165 -19 -110 4 -111 4 -120 -20 -5 -13 -21 -29 -35
-36 -14 -6 -25 -15 -25 -20 0 -5 -4 -7 -9 -4 -10 7 -3 45 12 64 6 7 24 19 41
27 61 27 62 30 33 69 -32 41 -32 47 -11 103 17 44 31 52 52 31 7 -7 12 -10 13
-7 0 2 2 20 3 39 1 19 6 43 10 52 6 12 0 21 -23 33 -19 9 -31 23 -31 35 0 18
-7 20 -91 20 -77 0 -90 -2 -85 -15 3 -10 -1 -15 -11 -15 -15 0 -15 -2 2 -13
19 -14 13 -37 -9 -37 -7 0 -18 -18 -25 -40 -6 -22 -21 -44 -31 -50 -11 -6 -20
-17 -20 -25 0 -10 -10 -15 -30 -15 -31 0 -43 26 -17 36 7 2 30 25 51 49 50 61
20 61 -37 1 -46 -47 -82 -70 -97 -61 -6 3 -10 1 -10 -5 0 -7 -6 -7 -22 1 l-21
11 23 18 c17 13 21 23 17 41 -4 16 1 33 18 55 14 18 21 35 17 38 -9 5 -30 -16
-57 -58 -20 -31 -41 -34 -48 -7 -3 14 -1 18 9 14 8 -3 14 1 14 8 0 8 14 23 30
34 16 11 30 23 30 26 0 3 -66 7 -146 8 -91 1 -143 -2 -140 -8 4 -5 2 -12 -4
-16 -5 -3 -10 1 -10 9 0 9 -4 16 -10 16 -5 0 -10 -6 -10 -12 0 -9 -4 -8 -11 2
-9 12 -10 11 -6 -7z"/>
<path d="M4870 7195 c0 -5 15 -23 33 -40 33 -33 36 -41 42 -86 3 -20 -4 -32
-25 -48 -38 -27 -60 -27 -61 2 -1 18 -2 19 -6 3 -4 -14 -11 -17 -34 -12 -27 5
-29 4 -23 -19 6 -26 -4 -33 -23 -14 -8 8 -13 -1 -18 -33 -3 -23 -9 -51 -11
-60 -3 -10 -1 -18 5 -18 6 0 11 7 11 15 0 8 5 15 10 15 6 0 10 -5 10 -11 0 -5
3 -8 8 -6 4 3 13 -1 19 -9 8 -8 9 -15 3 -19 -19 -11 -10 -25 25 -39 26 -11 35
-21 35 -39 0 -14 -6 -30 -14 -36 -7 -6 -16 -30 -20 -54 -13 -84 -113 -347
-131 -347 -2 0 5 25 16 55 28 79 25 98 -9 57 -15 -18 -33 -32 -39 -32 -7 0
-32 -17 -54 -37 -37 -33 -41 -35 -34 -14 5 15 3 26 -6 32 -7 4 -13 24 -13 43
0 36 -10 47 -19 24 -3 -7 -6 -2 -7 12 -1 24 -1 24 -12 5 -6 -10 -12 -49 -13
-85 -2 -65 -20 -120 -41 -127 -17 -6 -35 55 -29 96 6 36 6 36 -9 11 -8 -14
-15 -33 -16 -42 0 -12 -8 -18 -25 -18 -17 0 -25 -6 -26 -17 -1 -12 -4 -9 -8 7
-4 14 -12 25 -19 24 -36 -3 -42 -5 -42 -14 0 -5 8 -7 18 -3 9 3 14 3 10 -2 -4
-4 -3 -14 4 -22 6 -7 8 -16 5 -20 -3 -3 1 -20 10 -37 9 -17 19 -47 23 -66 l6
-35 16 30 c9 17 25 41 37 54 17 20 23 22 36 11 9 -7 17 -11 19 -9 14 14 56
105 56 120 0 23 13 24 30 4 9 -11 11 -38 6 -96 -9 -122 -21 -159 -75 -246 -20
-32 -31 -41 -45 -36 -11 3 -16 1 -12 -5 3 -5 -1 -15 -9 -22 -14 -11 -14 -10
-5 14 17 45 12 49 -30 19 -22 -15 -38 -34 -35 -40 2 -8 -4 -13 -16 -13 -16 0
-18 5 -13 25 7 27 -4 33 -24 13 -18 -18 -27 -1 -14 25 6 12 12 42 13 67 0 25
1 72 2 105 1 41 -4 72 -16 98 -22 45 -32 45 -15 -1 10 -25 10 -41 0 -74 -7
-24 -14 -59 -16 -78 -4 -45 -42 -133 -67 -156 -10 -9 -19 -22 -19 -28 0 -16
-92 -106 -108 -106 -18 0 -15 -9 13 -42 21 -24 23 -32 12 -48 -18 -30 -24 -25
-43 33 -9 28 -17 53 -18 54 -1 1 -15 5 -31 8 -24 6 -28 5 -18 -5 9 -10 9 -15
0 -24 -18 -18 -97 -47 -108 -41 -5 4 -8 -4 -6 -17 2 -21 -2 -23 -53 -26 l-55
-3 3 -49 c5 -60 -14 -124 -34 -116 -8 3 -14 1 -14 -5 0 -6 -4 -7 -10 -4 -5 3
-10 1 -10 -4 0 -6 -4 -11 -9 -11 -5 0 -3 13 5 29 8 16 16 51 17 78 2 46 1 48
-23 46 -14 -1 -38 3 -55 10 -16 6 -37 10 -46 9 -8 -1 -26 2 -40 8 -21 9 -20
10 14 6 20 -3 37 -1 37 5 0 15 -43 59 -57 59 -8 0 -16 7 -19 15 -8 19 -24 19
-38 0 -6 -8 -23 -16 -37 -17 -20 -2 -26 -8 -27 -28 -1 -14 -4 -50 -7 -80 -4
-45 -2 -59 14 -77 17 -21 170 -93 196 -93 6 0 35 -11 63 -25 51 -25 115 -36
82 -15 -8 5 -25 10 -36 10 -20 0 -41 26 -30 37 15 15 77 0 115 -28 27 -20 33
-21 63 -9 18 7 45 26 59 41 17 18 41 31 66 35 29 4 45 13 53 30 7 13 18 20 23
17 6 -4 8 0 4 10 -4 10 -2 16 6 14 7 -1 11 4 10 11 -2 6 3 12 11 12 7 0 19 7
26 15 7 9 15 13 18 10 3 -3 -9 -21 -27 -39 -32 -33 -35 -56 -6 -56 19 0 50 47
66 99 7 23 19 46 27 49 8 3 31 22 51 42 20 20 42 39 49 41 7 2 15 17 18 32 2
16 1 26 -4 23 -6 -3 -7 8 -3 27 8 37 41 48 66 23 19 -18 19 -29 0 -69 -16 -32
-16 -32 3 -10 11 12 30 25 43 28 16 4 32 22 47 53 20 43 22 44 17 15 -2 -18
-1 -33 3 -33 11 0 42 59 42 80 0 10 6 25 13 32 34 35 60 138 35 138 -6 0 -4 7
3 16 12 15 59 42 138 79 33 16 61 14 61 -4 0 -6 -7 -8 -15 -5 -8 4 -15 1 -15
-5 0 -16 31 -13 54 4 11 8 34 16 50 16 26 2 27 2 7 6 l-24 5 29 19 29 19 -40
0 -40 1 24 20 c19 16 24 29 23 66 0 31 -5 49 -16 55 -13 7 -13 12 0 44 8 20
10 33 5 29 -6 -3 -11 -1 -11 5 0 6 7 13 16 17 8 3 13 12 10 19 -8 21 4 17 25
-7 10 -12 16 -26 13 -30 -3 -5 -1 -9 5 -9 5 0 15 16 21 35 6 19 15 36 18 36
50 10 92 1 56 -11 -17 -7 -16 -10 15 -39 18 -17 37 -29 41 -26 12 7 21 -38 10
-49 -19 -19 -11 -46 13 -46 24 0 51 -22 59 -50 4 -11 8 -9 17 8 11 21 69 82
77 82 2 0 4 -9 4 -20 0 -11 -6 -20 -14 -20 -26 0 -30 -23 -8 -40 l21 -17 -26
-38 -26 -38 57 6 c68 7 86 19 86 58 0 16 5 29 10 29 6 0 10 -10 10 -22 l1 -23
20 24 c19 23 20 23 39 6 11 -10 20 -24 20 -31 0 -8 6 -11 15 -8 9 4 15 0 15
-10 0 -9 3 -16 8 -16 4 0 8 -16 9 -35 2 -24 -1 -35 -11 -35 -24 0 -26 -28 -3
-34 33 -9 37 -7 37 9 0 8 4 15 10 15 6 0 8 -16 5 -38 -4 -34 -2 -40 21 -51
l26 -12 -7 -87 c-7 -86 -7 -87 12 -69 11 9 24 17 30 17 6 0 13 7 17 15 3 8 15
15 26 15 11 0 20 4 20 10 0 5 -6 7 -13 4 -9 -3 -16 11 -23 45 -6 28 -7 52 -3
53 5 3 -3 42 -22 106 -6 20 111 97 185 122 35 11 85 36 112 55 41 30 45 35 28
41 -10 4 -23 9 -28 12 -5 3 -6 1 -3 -5 3 -5 -15 -17 -39 -26 -25 -9 -44 -13
-42 -8 7 20 89 101 102 101 14 0 30 55 20 71 -3 5 -26 9 -52 10 -29 0 -40 3
-29 7 17 7 17 8 -1 28 -21 22 -19 30 22 93 36 56 52 73 154 160 75 64 122 88
122 61 0 -5 -10 -10 -23 -10 -27 0 -122 -108 -149 -170 -16 -38 -45 -56 -77
-48 -8 2 -16 -4 -18 -12 -4 -13 -3 -13 7 0 10 12 11 12 5 -5 -17 -46 -17 -62
1 -69 15 -6 28 0 80 39 20 14 29 -2 15 -29 -17 -30 2 -63 36 -63 29 0 40 -10
26 -24 -16 -16 -4 -60 16 -55 9 3 30 9 46 13 l30 7 -34 6 -35 5 32 36 c18 20
44 41 59 47 23 8 138 35 251 58 18 4 20 7 10 18 -9 10 -17 11 -25 4 -9 -7 -13
-7 -13 0 0 6 5 14 10 17 6 3 10 15 10 26 0 11 -4 17 -10 14 -5 -3 -10 -1 -10
4 0 13 10 14 28 3 7 -5 11 -15 9 -23 -2 -8 -2 -11 0 -6 6 9 63 -31 63 -44 0
-6 11 -25 24 -42 36 -50 39 -57 21 -57 -9 0 -13 5 -10 11 4 6 0 9 -10 7 -10
-2 -20 4 -22 12 -4 13 -3 13 6 0 7 -9 11 -10 11 -3 0 20 -18 24 -34 7 -27 -26
-19 -49 21 -63 40 -15 63 -33 63 -50 0 -6 17 -21 38 -35 20 -13 67 -51 104
-85 36 -33 70 -61 75 -61 4 0 20 -14 34 -31 22 -27 28 -30 47 -20 29 15 62 14
62 -4 0 -7 -7 -18 -15 -23 -14 -7 -14 -12 0 -45 8 -20 19 -37 23 -37 4 0 14
-15 20 -34 7 -19 40 -76 74 -126 45 -68 58 -94 49 -103 -8 -8 -11 -6 -11 7 0
9 -4 14 -10 11 -5 -3 -10 1 -10 10 0 8 -10 19 -22 24 -40 15 -76 58 -88 102
-6 24 -18 59 -27 78 -15 33 -16 33 -29 16 -8 -10 -14 -23 -14 -27 0 -21 -40
15 -50 46 -12 36 -35 62 -43 49 -5 -9 30 -94 43 -103 4 -3 9 -11 11 -18 3 -10
11 -8 32 8 25 20 27 20 27 3 0 -14 2 -15 9 -5 6 10 10 9 14 -7 5 -22 -12 -71
-26 -71 -5 0 -5 -4 -2 -10 3 -5 -1 -10 -9 -10 -20 0 -20 -18 0 -65 8 -21 13
-46 11 -57 -3 -10 -2 -18 3 -18 14 0 28 24 32 54 1 16 9 31 16 34 20 6 14 -33
-13 -72 -23 -34 -23 -44 1 -28 6 4 18 21 27 37 14 26 16 27 17 9 0 -12 -9 -33
-20 -47 -26 -33 -25 -39 8 -35 27 3 27 4 26 76 l0 74 32 -39 c20 -24 29 -43
25 -52 -17 -29 25 -161 50 -161 6 0 10 -12 9 -27 -3 -36 10 -93 21 -93 4 0 11
5 14 10 3 6 14 10 24 10 10 0 18 6 19 13 1 6 6 37 11 67 l9 55 -55 53 c-30 28
-59 52 -63 52 -4 0 -11 7 -14 15 -5 13 0 15 32 9 66 -12 110 -32 165 -73 30
-23 58 -41 63 -41 5 0 29 -14 53 -30 24 -17 52 -30 61 -30 21 0 60 -41 60 -63
0 -21 -34 -57 -89 -93 l-45 -29 31 -3 c17 -2 39 -12 49 -23 9 -10 26 -19 36
-19 10 0 48 -13 85 -30 74 -34 73 -34 73 -20 0 6 -5 10 -10 10 -13 0 -70 57
-64 63 2 2 -14 17 -37 33 -23 15 -36 30 -30 32 6 2 33 -15 60 -37 27 -23 58
-41 70 -41 12 0 38 -16 59 -35 36 -35 37 -35 8 -25 -21 8 -32 8 -40 0 -14 -14
9 -30 45 -30 15 0 46 -7 69 -15 24 -8 44 -14 46 -12 2 1 -1 20 -6 42 -7 30 -5
45 5 62 11 16 12 23 2 27 -6 3 1 2 17 -1 20 -4 27 -3 22 6 -9 15 7 14 22 -1 6
-6 28 -13 49 -15 112 -9 180 -20 201 -33 29 -19 28 -30 -3 -30 -14 0 -25 -4
-25 -9 0 -8 37 -24 52 -22 4 0 5 -6 2 -14 -4 -10 0 -15 11 -15 9 0 13 -5 10
-10 -4 -6 -11 -8 -16 -5 -5 4 -9 1 -9 -5 0 -6 -13 -16 -30 -21 -16 -6 -30 -14
-30 -19 0 -4 -22 -18 -50 -31 -27 -13 -50 -27 -50 -31 0 -4 -12 -3 -26 3 -15
5 -29 8 -31 5 -2 -2 9 -25 24 -52 16 -27 37 -68 47 -92 11 -23 23 -41 27 -40
4 2 36 42 71 90 83 110 135 170 173 194 27 18 90 44 108 44 14 0 7 -27 -13
-45 -28 -25 -26 -47 3 -40 26 7 221 24 225 20 1 -1 -21 -10 -50 -19 -46 -15
-188 -98 -188 -111 0 -2 16 3 35 11 19 7 49 14 67 14 19 0 42 6 53 14 45 31
126 75 119 65 -4 -8 -1 -8 12 -1 26 14 194 27 194 15 0 -5 -5 -14 -12 -21 -36
-36 78 8 137 52 55 43 78 47 69 12 -8 -32 6 -39 101 -48 178 -17 204 -22 231
-51 13 -15 31 -27 39 -27 7 0 26 -5 42 -12 15 -6 54 -12 86 -14 l57 -3 0 170
0 170 -22 -12 c-13 -7 -26 -17 -30 -23 -5 -7 -8 -4 -8 7 0 12 12 23 30 30 24
9 30 17 30 40 0 27 -2 28 -32 22 -18 -4 -39 -12 -45 -17 -7 -6 -13 -7 -13 -2
0 11 62 54 78 54 9 0 12 188 12 795 0 788 0 795 -20 795 -11 0 -20 -4 -20 -10
0 -20 -2 -25 -12 -38 -6 -7 -16 -11 -22 -9 -6 3 -19 -2 -28 -11 -15 -12 -18
-13 -18 -1 0 8 7 23 15 33 8 11 15 23 15 28 0 12 -108 10 -115 -2 -5 -8 -11
-8 -19 -1 -8 7 -334 10 -972 10 l-959 0 35 -30 c19 -17 34 -36 32 -42 -2 -7 0
-9 4 -4 9 9 104 -81 104 -99 0 -6 6 -17 14 -24 8 -6 12 -19 9 -27 -4 -11 -2
-14 5 -9 7 4 12 4 13 -1 4 -31 4 -140 0 -148 -5 -10 -6 -14 -9 -44 -2 -11 -6
-10 -16 4 -10 14 -11 25 -4 39 7 12 7 16 0 12 -6 -3 -13 -2 -17 4 -4 6 -12 7
-18 3 -7 -4 -5 2 3 12 14 17 14 18 -8 6 -25 -13 -42 -7 -42 16 0 11 6 14 25 9
34 -9 33 0 -4 72 -8 16 -8 22 0 22 7 0 9 10 4 28 -4 15 -8 33 -8 40 0 6 -4 12
-9 12 -5 0 -7 -9 -3 -19 4 -15 1 -20 -12 -20 -10 1 -28 -2 -40 -6 -16 -5 -28
-1 -45 18 -18 19 -30 24 -51 20 -15 -3 -24 -10 -21 -15 4 -6 0 -14 -7 -19 -21
-13 7 -29 53 -29 27 0 40 -6 48 -19 15 -29 13 -31 -28 -31 -25 0 -43 -7 -55
-20 -9 -11 -17 -22 -17 -25 0 -2 23 -2 51 1 33 3 48 1 44 -6 -3 -5 -14 -10
-25 -10 -17 0 -36 -27 -25 -38 2 -3 22 -6 42 -7 21 -1 47 -3 59 -4 46 -3 58
-24 56 -97 -3 -78 -14 -98 -51 -88 -14 4 -45 8 -68 10 -49 3 -59 -16 -18 -34
17 -8 25 -20 25 -37 0 -35 54 -135 74 -135 3 0 6 6 6 14 0 18 33 29 62 21 17
-6 20 -4 15 9 -4 9 -2 16 2 16 5 0 11 -6 14 -12 2 -7 8 -10 12 -5 5 4 3 30 -4
58 -14 55 -11 66 15 51 9 -5 12 -12 7 -15 -7 -4 -7 -24 0 -57 8 -41 13 -50 28
-48 10 2 18 -1 19 -7 0 -5 -8 -11 -20 -13 -11 -2 -20 -8 -20 -13 0 -11 -47
-12 -52 0 -1 4 -13 11 -25 15 -16 5 -23 2 -28 -14 -7 -21 -41 -40 -71 -40 -10
0 -13 7 -8 24 9 39 -11 38 -37 -2 -22 -34 -101 -87 -120 -80 -4 2 -2 17 5 33
32 71 46 118 41 136 -8 24 -16 24 -51 -3 -15 -13 -36 -22 -45 -20 -9 2 -19 -4
-23 -13 -3 -9 -11 -13 -17 -10 -5 4 -19 -1 -29 -10 -11 -10 -26 -15 -35 -11
-13 4 -15 1 -10 -14 5 -14 2 -20 -10 -20 -12 0 -15 6 -10 20 10 30 -23 26 -37
-5 -11 -25 -28 -34 -28 -15 0 6 -7 10 -16 10 -8 0 -12 -4 -9 -10 3 -5 1 -10
-4 -10 -31 0 9 47 138 163 30 28 40 47 23 47 -5 0 -29 -13 -53 -30 -24 -16
-52 -30 -62 -30 -21 0 -107 44 -110 56 -3 14 -122 111 -143 118 -17 5 -20 16
-22 81 -1 41 2 75 7 75 5 0 13 21 18 48 6 26 14 56 18 66 6 14 5 17 -3 12 -7
-4 -12 -3 -12 3 0 15 49 59 90 81 19 11 58 39 85 64 l50 45 -984 1 c-873 0
-982 -2 -971 -15 7 -8 21 -15 31 -15 22 0 42 -34 34 -59 -5 -17 -32 -30 -59
-31 -11 0 2 15 15 16 22 3 23 5 9 14 -22 14 -28 12 -35 -10 -4 -11 -11 -17
-17 -14 -7 4 -6 9 2 14 10 6 9 9 0 15 -7 4 -16 2 -21 -6 -4 -7 -12 -10 -16 -5
-4 5 -2 11 5 13 18 7 15 33 -5 40 -10 4 -23 14 -30 22 -8 11 -34 17 -92 19
-45 2 -81 1 -81 -3z m3485 -600 c55 -14 134 -43 175 -64 41 -21 86 -42 100
-46 33 -10 60 -34 60 -54 1 -9 26 -36 56 -60 59 -48 78 -86 50 -106 -14 -10
-15 -20 -8 -53 5 -22 6 -46 1 -53 -4 -7 -5 -17 -2 -22 6 -10 43 21 43 36 0 6
16 25 35 43 26 23 33 37 28 50 -13 34 39 -8 58 -47 21 -43 35 -91 20 -69 -13
19 -14 5 -2 -38 7 -21 6 -32 -1 -32 -5 0 -7 -7 -4 -16 3 -8 2 -12 -4 -9 -6 3
-13 -2 -16 -12 -3 -10 -19 -45 -35 -78 -16 -33 -29 -74 -29 -90 -1 -39 -22
-69 -38 -53 -7 7 -12 20 -12 30 0 13 -8 18 -26 18 -14 0 -33 4 -42 9 -11 6
-28 4 -47 -4 -24 -11 -26 -14 -10 -15 11 -1 27 -1 35 0 8 1 12 -1 8 -5 -4 -4
2 -19 12 -33 29 -36 26 -86 -5 -100 -14 -6 -25 -18 -25 -27 0 -21 -9 -19 -36
10 -27 29 -34 31 -34 10 0 -8 5 -15 10 -15 6 0 10 -9 10 -20 0 -11 6 -20 13
-20 7 0 5 -5 -5 -11 -22 -12 -14 -64 14 -96 30 -33 17 -49 -15 -19 -16 14 -32
26 -38 26 -5 0 -9 8 -9 19 0 12 -9 20 -27 24 -39 7 -47 1 -71 -54 -18 -41 -30
-53 -70 -72 -26 -12 -58 -32 -72 -45 -37 -33 -65 -38 -91 -13 -19 18 -20 21
-6 21 24 0 21 37 -3 43 -29 7 -75 -7 -75 -23 0 -40 -344 23 -385 71 -3 3 -33
20 -67 38 -73 39 -103 65 -103 90 0 14 5 18 20 14 24 -6 24 -3 5 43 -8 19 -14
37 -14 41 1 3 -5 10 -13 14 -9 6 -10 11 -2 17 6 4 11 26 10 50 -1 23 2 42 7
42 4 0 7 5 7 11 0 5 -4 8 -9 4 -22 -13 -14 69 8 85 4 3 18 21 31 40 14 19 36
44 50 55 14 11 38 35 55 53 16 17 34 32 40 32 10 0 35 88 35 123 0 9 5 17 10
17 6 0 10 5 10 10 0 6 -10 10 -23 10 -20 0 -23 4 -19 29 2 17 13 38 23 47 10
9 19 24 18 33 0 12 -3 11 -9 -4 -6 -13 -9 -15 -9 -5 -1 19 27 64 72 113 26 30
44 39 83 46 27 4 63 15 79 24 43 23 105 21 220 -8z m-709 -300 c-3 -8 1 -18 8
-22 20 -12 9 -126 -15 -152 -11 -11 -19 -31 -19 -45 0 -32 -14 -40 -34 -20
-18 18 -21 45 -6 60 8 8 6 15 -4 23 -13 11 -14 17 -2 40 20 38 28 99 14 107
-8 5 -5 10 8 15 33 13 57 10 50 -6z"/>
<path d="M4156 6968 c-53 -59 -53 -45 1 -137 17 -29 17 -31 -3 -58 -11 -15
-21 -45 -23 -66 -3 -37 -2 -38 19 -25 14 9 20 20 17 36 -5 26 19 31 27 5 7
-21 73 -93 86 -93 5 0 4 16 -1 35 -6 19 -7 40 -4 45 3 5 -1 20 -10 33 -18 28
-12 37 25 37 37 0 42 8 20 39 -10 14 -24 51 -31 81 -6 30 -18 61 -26 68 -11
11 -11 17 -2 28 7 8 9 18 5 21 -4 4 -11 1 -16 -7 -7 -10 -10 -11 -10 -2 0 25
-27 10 -74 -40z"/>
<path d="M4040 6616 c0 -9 -4 -16 -10 -16 -5 0 -10 4 -10 8 0 5 -7 9 -15 9
-10 0 -14 -7 -10 -19 3 -10 7 -27 11 -37 3 -11 14 -23 25 -26 22 -7 25 -23 7
-30 -37 -12 -53 -9 -53 10 0 11 -4 21 -10 21 -27 4 -55 17 -55 27 0 6 -2 8 -5
6 -2 -3 4 -27 14 -55 10 -27 18 -68 16 -91 -2 -45 22 -82 45 -68 9 5 9 2 2
-11 -5 -11 -10 -58 -10 -105 0 -87 -17 -195 -33 -215 -5 -7 -23 -14 -40 -18
-22 -4 -34 -15 -44 -40 -8 -19 -20 -40 -27 -48 -23 -23 -50 -89 -36 -86 7 1
29 -3 49 -10 29 -10 42 -10 72 3 37 15 46 28 27 40 -5 3 -10 22 -10 41 0 41
21 45 72 14 38 -23 55 -26 39 -6 -37 44 -54 204 -38 351 6 52 26 71 59 54 12
-6 30 -4 54 6 21 8 47 12 58 9 20 -6 20 -6 -1 15 -13 12 -24 27 -24 34 -6 59
-5 107 3 107 5 0 30 -20 56 -45 49 -47 65 -46 38 2 -9 15 -21 40 -28 56 -7 15
-18 27 -25 27 -6 0 -15 10 -19 22 -6 21 -31 52 -43 54 -3 0 -13 4 -21 7 -8 4
-24 5 -35 3 -11 -2 -26 1 -32 7 -9 7 -13 5 -13 -7z"/>
<path d="M6367 6513 c-12 -11 -8 -71 4 -75 13 -4 -4 -45 -27 -63 -8 -6 -9 -17
-4 -30 l9 -20 1 20 c1 13 7 6 16 -20 16 -45 13 -65 -12 -65 -10 0 -32 -5 -50
-12 -31 -11 -32 -13 -17 -34 l14 -22 54 18 c29 10 62 23 73 29 12 6 23 7 26 2
8 -12 -21 -36 -84 -70 l-53 -29 73 1 c49 1 75 -2 77 -10 3 -9 10 -9 29 -1 23
11 33 28 15 28 -5 0 -12 7 -15 16 -7 19 40 68 59 60 9 -3 12 0 8 10 -4 10 2
14 20 14 31 0 48 47 23 66 -9 6 -16 16 -16 23 0 6 -6 11 -13 11 -13 0 -33 21
-53 56 -7 10 -19 18 -28 18 -11 -1 -16 7 -16 27 0 26 -2 28 -18 18 -15 -9 -24
-8 -45 6 -15 9 -27 21 -27 26 0 11 -14 12 -23 2z"/>
<path d="M3359 6377 c-9 -7 -19 -25 -23 -41 -7 -27 -5 -28 19 -24 36 7 53 -24
30 -58 -8 -13 -11 -24 -5 -24 16 0 11 -25 -11 -54 -11 -14 -18 -26 -14 -26 15
0 -32 -36 -74 -57 -38 -19 -42 -22 -21 -23 14 0 60 -9 103 -19 69 -16 79 -17
84 -4 3 8 2 18 -3 22 -14 10 -16 32 -4 46 6 8 13 39 16 70 3 46 1 56 -10 52
-8 -3 -17 1 -20 9 -9 23 -7 26 6 18 7 -4 2 6 -10 23 -13 18 -22 46 -22 67 0
38 -13 45 -41 23z"/>
<path d="M5355 6139 c-8 -38 -29 -48 -74 -38 -20 5 -49 9 -66 9 l-30 0 32 -20
c18 -11 44 -22 58 -26 14 -3 25 -10 25 -15 0 -5 7 -9 15 -9 8 0 15 -4 15 -10
0 -5 -8 -10 -18 -10 -10 0 -22 -4 -27 -9 -6 -6 -32 2 -68 19 -63 32 -94 31
-76 -1 5 -11 20 -19 35 -19 17 0 28 -8 36 -27 6 -16 11 -31 10 -35 -1 -3 16
-4 38 -1 29 4 41 2 45 -9 4 -9 19 -15 37 -16 33 -1 33 0 -25 42 -25 19 -35 32
-29 38 6 6 17 6 31 -2 23 -12 45 -5 35 11 -3 6 3 5 15 -2 l20 -13 -21 -23
c-29 -31 -9 -29 25 3 15 14 30 38 34 54 3 16 14 37 24 46 24 22 24 34 0 34
-10 0 -21 6 -24 14 -3 8 -19 21 -36 29 -29 15 -30 15 -36 -14z"/>
<path d="M4910 6153 c0 -6 -11 -22 -25 -37 -14 -15 -25 -35 -25 -44 0 -11 -3
-13 -8 -6 -14 21 -60 22 -78 3 -16 -18 -16 -19 1 -19 11 0 15 -5 12 -14 -8
-21 16 -37 61 -39 40 -1 40 -1 34 -36 -4 -28 -2 -32 9 -25 8 4 24 7 37 5 13
-1 29 3 37 9 10 8 16 7 25 -7 10 -16 10 -16 5 4 -3 12 -1 24 5 28 17 11 11 25
-11 25 -21 0 -21 3 -15 65 7 65 0 79 -24 50 -7 -9 -15 -13 -18 -10 -3 3 3 14
13 25 10 11 13 20 7 20 -6 0 -17 3 -26 6 -9 3 -16 2 -16 -3z"/>
<path d="M2852 6017 c-18 -21 21 -118 55 -135 15 -8 50 -33 76 -55 29 -24 64
-43 85 -47 39 -6 43 -17 27 -66 -7 -22 13 -35 79 -50 l30 -7 -24 34 c-13 19
-28 37 -34 41 -10 7 -13 64 -3 74 4 4 14 1 24 -7 15 -12 15 -11 -1 14 -10 15
-24 27 -31 27 -8 0 -30 20 -51 45 -21 27 -43 44 -51 41 -7 -3 -13 -2 -13 2 0
5 -20 21 -44 36 -25 16 -53 37 -62 47 -20 22 -47 25 -62 6z"/>
<path d="M5063 5957 c-45 -23 -54 -41 -28 -51 14 -5 14 -9 0 -35 -8 -17 -15
-39 -15 -50 0 -11 -4 -23 -10 -26 -15 -10 -12 -35 5 -35 10 0 15 10 15 28 0
15 9 41 20 57 21 31 28 19 9 -17 -6 -11 -8 -22 -6 -25 7 -6 87 74 87 87 0 6
10 15 23 20 21 8 21 9 2 9 -13 1 -25 12 -32 31 -13 35 -15 35 -70 7z"/>
<path d="M3261 5955 c0 -6 -35 -10 -81 -10 -44 0 -80 -2 -80 -5 1 -5 29 -45
87 -120 17 -23 34 -47 37 -53 3 -8 11 -5 23 8 10 11 30 30 45 41 24 19 26 23
13 34 -8 7 -15 20 -15 29 0 9 -4 21 -9 27 -5 5 -11 20 -14 34 -2 14 -5 21 -6
15z"/>
<path d="M4324 5749 c-10 -12 -31 -27 -45 -35 -16 -8 -29 -25 -32 -41 -3 -15
-17 -44 -31 -63 -14 -19 -34 -47 -43 -62 -24 -37 -64 -58 -120 -63 -75 -8
-126 -19 -130 -30 -4 -14 56 -31 121 -34 52 -2 59 1 89 30 17 18 26 30 20 25
-27 -15 -10 7 87 121 55 64 103 127 106 140 4 12 11 20 17 16 6 -3 7 -1 3 5
-10 17 -20 15 -42 -9z"/>
<path d="M5310 5651 c0 -7 -6 -11 -15 -8 -14 6 -95 -51 -125 -88 -14 -17 -14
-18 10 -6 l25 12 -22 -20 c-13 -10 -23 -23 -23 -28 0 -4 -8 -13 -19 -20 -10
-6 -21 -25 -24 -42 -4 -18 -13 -31 -22 -31 -8 0 -15 -4 -15 -9 0 -5 -12 -16
-26 -26 -24 -16 -25 -16 -16 2 6 10 22 30 36 44 17 17 27 40 30 70 3 24 3 35
0 24 -3 -11 -11 -24 -16 -30 -8 -7 -9 -6 -4 3 4 6 2 12 -4 12 -6 0 -8 6 -5 13
4 6 -1 3 -9 -7 -9 -11 -16 -23 -16 -27 0 -3 -18 -18 -40 -33 -22 -14 -40 -31
-40 -38 0 -6 -7 -20 -16 -29 -16 -17 -15 -19 7 -28 27 -10 63 -47 72 -73 9
-25 37 -23 37 2 0 25 31 86 60 120 12 14 25 32 30 40 7 13 11 12 28 -3 18 -17
20 -16 53 40 38 65 84 100 141 110 46 7 49 31 4 46 -21 7 -30 6 -37 -4 -7 -11
-11 -10 -23 6 -10 13 -15 15 -16 6z"/>
<path d="M4660 5107 c0 -37 -36 -70 -51 -46 -4 8 -11 10 -16 5 -4 -4 0 -12 9
-17 14 -8 16 -13 6 -29 -9 -14 -9 -22 1 -34 7 -8 10 -19 7 -25 -3 -5 12 -29
34 -53 22 -23 37 -35 34 -24 -7 17 -5 17 22 3 16 -8 40 -27 53 -41 17 -18 31
-24 44 -20 19 6 57 -20 57 -40 0 -6 9 -17 20 -24 11 -7 20 -8 20 -3 0 6 -4 12
-9 15 -19 12 -63 114 -57 133 4 13 0 25 -10 34 -15 12 -16 11 -11 -11 4 -14 4
-19 1 -13 -3 8 -15 11 -28 7 -28 -7 -58 22 -37 36 8 4 10 13 6 20 -6 10 -12 8
-23 -6 -9 -13 -16 -15 -19 -7 -2 7 -11 9 -20 6 -13 -5 -14 -3 -4 15 7 12 16
22 21 22 6 0 11 12 11 28 2 23 2 24 6 5 6 -33 28 -28 27 5 -1 36 -13 62 -29
62 -7 0 -15 7 -19 15 -3 8 -15 15 -26 15 -16 0 -20 -6 -20 -33z"/>
<path d="M4358 4817 c-4 -26 -14 -61 -23 -77 -11 -20 -12 -31 -4 -36 7 -4 9
-24 6 -50 -5 -50 6 -57 25 -16 13 26 16 27 73 24 33 -2 65 -8 71 -13 6 -5 14
-6 17 -2 4 3 7 2 7 -4 0 -6 11 -14 24 -17 14 -3 38 -18 55 -32 l31 -26 38 33
c20 17 47 51 59 74 22 41 22 43 3 38 -11 -3 -20 -9 -20 -14 0 -5 -28 -9 -61
-9 -65 0 -139 17 -139 32 0 5 5 6 10 3 6 -4 24 5 41 19 17 14 38 26 47 26 52
0 111 47 65 52 -116 10 -142 3 -135 -41 4 -26 1 -31 -16 -31 -12 0 -23 8 -27
19 -10 31 -35 33 -86 6 l-48 -25 -3 58 -3 57 -7 -48z"/>
<path d="M1833 4621 c7 -28 55 -54 109 -59 69 -6 218 -84 218 -113 0 -11 5
-17 10 -14 7 4 7 13 0 26 -11 20 3 28 15 9 10 -17 25 -11 25 10 0 11 -4 20
-10 20 -5 0 -10 5 -10 10 0 6 9 10 19 10 27 0 35 17 17 36 -9 8 -16 20 -16 26
0 5 -14 -2 -31 -16 -40 -34 -60 -33 -99 4 -18 16 -36 27 -42 24 -5 -3 -35 -9
-66 -14 -60 -8 -102 4 -130 39 -10 12 -12 13 -9 2z"/>
<path d="M4305 4480 c3 -14 13 -49 21 -79 9 -32 13 -69 9 -89 -5 -26 -2 -37
11 -46 22 -16 11 -51 -12 -42 -12 5 -15 2 -10 -10 3 -8 6 -24 6 -34 0 -11 11
-22 30 -29 31 -10 33 -16 30 -63 -1 -20 3 -28 14 -28 18 0 21 15 6 25 -5 3
-10 11 -10 17 0 6 11 1 24 -11 14 -13 29 -20 35 -17 34 22 91 -65 91 -139 0
-47 1 -48 74 -113 18 -16 18 -16 12 23 -4 22 -9 92 -12 155 -5 113 -31 260
-43 243 -3 -4 -22 -8 -43 -9 -27 -1 -35 2 -31 12 3 8 20 14 40 14 29 0 34 3
28 18 -12 31 -23 105 -18 119 4 9 -4 13 -25 13 -20 0 -36 7 -46 21 -11 17 -21
20 -44 14 -23 -5 -33 -2 -40 12 -12 20 -21 21 -33 2 -6 -11 -9 -10 -15 4 -3 9
-10 14 -16 11 -5 -3 -16 2 -24 12 -15 18 -15 18 -9 -6z"/>
<path d="M1043 4373 c-7 -3 -13 -16 -13 -29 0 -14 -4 -22 -10 -19 -5 3 -10 15
-10 26 0 14 -7 19 -30 19 l-30 0 1 -61 c1 -34 -3 -64 -8 -68 -17 -10 -33 -48
-33 -75 0 -14 -9 -50 -21 -81 -18 -48 -19 -61 -9 -85 23 -55 38 -57 60 -9 11
24 20 51 20 60 0 20 75 184 100 219 9 14 20 34 23 45 7 23 -22 65 -40 58z"/>
<path d="M6677 4168 c-2 -7 3 -28 10 -47 8 -19 13 -52 11 -73 -2 -24 1 -39 9
-42 7 -3 13 -10 13 -16 0 -6 -7 -4 -16 4 -21 21 -29 20 -47 -6 -8 -13 -24 -33
-36 -45 -11 -12 -17 -25 -12 -28 5 -3 12 -1 16 5 3 5 26 10 51 10 35 0 44 3
44 18 0 15 2 15 11 2 9 -12 11 -13 16 -1 13 32 60 73 86 74 28 2 31 7 21 45
-8 27 -24 29 -24 3 0 -22 -33 -34 -49 -18 -8 8 -11 6 -11 -6 0 -22 -15 -22
-18 1 -1 9 -3 28 -6 42 -2 14 -5 28 -5 31 -1 7 -31 21 -31 14 0 -2 7 -11 16
-19 12 -13 13 -16 1 -16 -15 0 -42 47 -38 68 1 6 0 12 -3 12 -2 0 -6 -6 -9
-12z"/>
<path d="M2260 4081 c0 -5 -23 -34 -51 -65 -70 -77 -158 -119 -238 -114 l-58
3 21 -22 c13 -14 25 -18 31 -12 13 13 109 11 140 -3 14 -6 28 -8 33 -3 4 4 1
10 -6 12 -10 4 -10 8 -1 19 6 8 17 14 23 14 19 1 106 60 106 73 0 8 -4 7 -11
-3 -9 -12 -9 -11 -4 5 4 11 11 34 15 51 4 18 10 37 14 43 4 6 2 11 -3 11 -6 0
-11 -4 -11 -9z"/>
<path d="M383 3961 c-10 -17 -21 -31 -24 -31 -4 0 -17 -25 -29 -55 -12 -30
-26 -55 -31 -55 -5 0 -27 -34 -50 -75 -22 -41 -44 -75 -48 -75 -4 0 -23 -21
-42 -47 -19 -25 -44 -60 -57 -77 -15 -21 -21 -39 -17 -54 4 -15 2 -21 -4 -17
-7 3 -8 0 -5 -9 8 -20 54 -21 54 -2 0 23 29 28 178 31 l142 3 0 -32 c0 -18 -5
-37 -11 -43 -8 -8 -3 -17 20 -34 24 -18 28 -26 20 -41 -7 -12 -6 -18 2 -18 6
0 9 -6 6 -14 -8 -20 13 -36 46 -36 17 0 52 -14 80 -31 42 -26 53 -29 78 -20
17 6 29 6 29 1 0 -17 -53 -23 -94 -12 -32 8 -46 7 -67 -4 -24 -12 -30 -12 -43
1 -22 22 -24 19 -19 -29 3 -23 1 -52 -5 -62 -6 -10 -44 -36 -85 -57 -63 -33
-89 -40 -156 -44 -71 -5 -81 -4 -81 11 0 12 -10 16 -45 16 -25 0 -45 5 -45 10
0 6 13 10 29 10 17 0 33 5 36 10 4 6 19 9 33 8 17 -2 26 1 25 10 -4 15 0 15
42 -2 33 -14 34 -14 22 5 -6 10 -20 22 -31 25 -14 5 -17 12 -12 35 4 19 1 29
-7 29 -17 1 -67 46 -67 61 0 7 -7 20 -16 30 -15 17 -15 21 6 54 12 19 18 35
13 35 -15 -1 -81 -64 -118 -113 -33 -45 -36 -53 -33 -110 3 -56 5 -62 26 -65
12 -2 22 -8 22 -13 0 -5 -11 -7 -25 -3 l-25 6 0 -205 0 -205 54 -6 c33 -5 62
-15 75 -27 22 -20 33 -21 93 -3 14 4 16 1 11 -12 -5 -15 0 -16 54 -9 56 6 62
5 88 -19 20 -19 24 -26 12 -26 -9 0 -21 -9 -27 -20 -6 -11 -18 -20 -26 -20 -8
0 -28 -14 -43 -31 -20 -21 -41 -32 -70 -36 -46 -6 -55 -15 -57 -55 -2 -25 1
-27 25 -22 14 4 30 11 35 15 6 5 18 9 28 9 10 0 17 5 15 12 -3 16 42 37 94 43
40 5 42 4 25 -8 -11 -8 -27 -12 -36 -10 -10 3 -20 -2 -23 -11 -4 -11 -1 -13
11 -9 9 3 5 -4 -10 -15 -14 -12 -31 -22 -37 -22 -6 0 -11 -6 -11 -13 0 -19
-28 -41 -73 -56 -36 -12 -39 -11 -58 13 -11 14 -25 26 -31 26 -17 0 1 -53 24
-71 l20 -16 -23 -22 c-24 -22 -96 -47 -107 -37 -3 3 1 6 10 6 8 0 15 7 15 15
0 18 -16 19 -39 1 -16 -11 -18 -32 -18 -154 l0 -141 25 -3 c14 -2 25 -7 25
-13 -1 -9 25 -23 47 -24 6 -1 19 21 28 48 17 52 49 101 66 101 6 0 7 -5 3 -12
-4 -7 -3 -8 5 -4 6 4 9 11 6 16 -3 5 10 21 30 36 37 28 45 44 21 44 -14 0 -32
18 -25 24 2 2 19 7 37 11 25 5 32 3 32 -8 0 -20 49 -31 83 -18 15 6 41 24 58
41 18 16 34 28 37 26 7 -8 -50 -54 -90 -73 -43 -21 -47 -29 -18 -38 24 -7 44
5 110 64 24 22 46 38 48 36 2 -2 -4 -19 -13 -38 -14 -30 -21 -35 -42 -31 -23
4 -24 3 -9 -11 21 -22 21 -22 -14 -20 -35 2 -40 -12 -8 -24 29 -11 10 -21 -56
-31 l-51 -7 35 -16 c47 -21 53 -28 32 -43 -16 -12 -15 -13 7 -14 20 0 21 -2
11 -15 -9 -10 -9 -15 -1 -15 17 0 13 -14 -10 -38 -11 -12 -17 -27 -14 -32 3
-6 0 -10 -7 -10 -9 0 -9 -3 -2 -8 13 -9 26 -43 15 -39 -13 4 -61 -60 -61 -82
0 -13 -7 -21 -17 -22 -12 -1 -10 -4 7 -9 14 -4 19 -8 13 -9 -7 -1 -13 -8 -13
-16 0 -20 -24 -19 -41 1 -8 9 -19 35 -24 58 -6 22 -13 39 -16 36 -3 -3 -13 1
-22 8 -17 15 -138 19 -194 6 l-33 -6 0 -114 c0 -69 4 -114 10 -114 6 0 10 4
10 8 0 15 55 40 74 32 14 -4 16 -9 8 -14 -7 -4 -17 -4 -24 0 -7 4 -8 3 -4 -4
4 -7 1 -12 -9 -12 -9 0 -13 -5 -10 -11 4 -6 -2 -13 -14 -16 -12 -3 -21 -13
-21 -22 0 -14 -2 -14 -10 -1 -7 10 -10 -14 -10 -77 0 -63 4 -93 13 -97 9 -5 9
-7 0 -12 -7 -3 -13 -21 -13 -40 0 -29 3 -34 24 -34 13 0 26 5 28 11 5 14 45
-8 52 -28 7 -16 -48 -45 -77 -41 l-22 3 -3 -581 -2 -581 97 -6 c156 -11 531
-8 538 3 3 6 11 10 16 10 6 0 7 -4 4 -10 -3 -5 3 -10 15 -10 11 0 23 6 26 13
3 8 10 14 17 15 99 14 125 26 146 65 11 21 20 24 76 25 58 1 65 -1 70 -21 3
-12 13 -39 22 -59 16 -37 17 -38 67 -37 44 0 48 2 25 10 -14 5 -31 21 -37 35
-7 13 -18 27 -26 30 -20 8 -49 98 -44 134 3 16 1 31 -2 32 -11 5 -19 87 -9 94
5 3 9 17 8 32 0 24 -1 25 -9 7 -13 -31 -12 95 2 195 7 52 18 94 30 109 10 13
18 28 18 33 0 14 95 168 123 199 13 14 57 48 98 74 41 27 90 62 110 80 19 17
78 48 132 69 53 21 97 40 97 42 0 3 -20 2 -44 -1 -49 -8 -83 3 -50 16 10 4 36
8 57 8 26 1 37 5 37 16 0 10 10 15 32 15 l31 0 -21 -19 c-27 -23 -18 -33 25
-25 18 3 53 3 78 0 39 -6 45 -10 45 -31 0 -19 -10 -30 -41 -46 l-41 -21 31
-30 c17 -17 31 -39 31 -49 0 -16 5 -18 25 -13 33 8 32 -9 -2 -34 -23 -17 -26
-23 -15 -34 10 -10 17 -10 32 0 28 17 30 16 23 -19 -5 -25 -2 -31 16 -36 13
-3 20 -11 17 -19 -3 -9 2 -14 15 -14 11 0 30 -11 43 -25 13 -14 27 -25 31 -25
4 0 25 -16 46 -35 22 -19 43 -35 48 -35 5 0 11 -9 14 -21 8 -28 32 -19 31 12
-3 54 -10 85 -21 96 -7 8 -8 25 -3 49 5 20 6 43 3 50 -6 18 -3 17 33 -1 36
-18 63 -62 66 -109 2 -20 5 -36 7 -36 2 0 20 13 40 29 75 59 180 121 222 130
80 18 224 54 239 59 8 3 -9 -14 -38 -37 -59 -47 -63 -66 -8 -32 26 16 58 24
122 28 69 5 82 8 63 15 -13 5 -39 10 -56 10 -21 0 -33 5 -33 13 0 19 48 23 94
8 40 -14 154 -17 194 -7 34 10 20 30 -18 26 -38 -4 -50 9 -50 55 0 21 7 37 20
46 18 12 18 16 5 33 -15 19 -15 18 -35 -5 -25 -29 -29 -118 -5 -127 8 -4 12
-10 9 -15 -8 -14 -64 -10 -109 7 -22 9 -51 15 -65 15 -34 -2 -82 18 -101 42
-15 18 -20 19 -47 8 -24 -10 -35 -10 -54 0 -20 11 -21 10 -11 -3 7 -8 10 -18
6 -21 -3 -4 0 -7 7 -7 7 0 10 -3 7 -6 -4 -4 -14 -1 -24 7 -13 11 -15 11 -9 1
13 -22 -42 -71 -97 -87 -45 -13 -52 -13 -81 3 -17 9 -34 21 -37 26 -4 5 -12 6
-18 2 -7 -5 -8 -1 -4 10 5 12 3 15 -6 9 -10 -5 -11 -2 -6 14 7 22 -8 30 -20
10 -5 -7 -15 -4 -32 6 -15 10 -22 12 -18 4 10 -16 -12 -4 -42 24 -30 26 -29
33 5 43 41 12 56 11 69 -6 10 -13 12 -13 19 5 4 11 18 33 31 48 13 16 23 35
23 43 0 8 8 14 18 14 9 0 -3 10 -28 22 -25 12 -47 23 -49 24 -2 2 4 15 13 30
21 32 17 38 -18 24 -66 -25 -113 -4 -123 54 -3 20 -10 39 -14 42 -14 8 -10 40
7 54 8 8 20 23 26 34 8 16 4 15 -20 -7 -33 -32 -47 -24 -36 19 l7 28 -31 -23
c-18 -12 -32 -30 -33 -39 0 -11 -3 -12 -6 -4 -7 18 -32 15 -32 -5 0 -10 -3
-30 -6 -44 -4 -16 -2 -31 7 -40 12 -13 68 -120 68 -131 0 -6 -112 1 -119 7 -2
3 -14 -4 -26 -15 -13 -12 -28 -17 -43 -13 -26 6 -29 23 -4 23 10 0 27 7 38 15
10 8 27 15 36 15 27 0 29 14 7 56 -14 28 -19 51 -16 82 4 36 2 42 -14 42 -10
0 -42 9 -71 20 -44 17 -61 31 -100 85 -25 35 -49 77 -53 94 -10 48 -28 39 -86
-46 l-32 -46 -63 6 c-36 2 -66 1 -69 -3 -10 -16 8 -42 25 -37 9 2 27 -3 39
-12 l21 -16 -25 -27 c-28 -31 -31 -40 -11 -32 8 3 17 1 20 -5 4 -5 -40 -33
-96 -61 -57 -28 -110 -58 -118 -65 -8 -7 -35 -19 -60 -26 -25 -7 -51 -19 -58
-26 -7 -7 -23 -13 -35 -13 -20 0 -20 -2 7 -23 21 -17 27 -29 22 -42 -5 -15
-14 -17 -60 -11 -70 8 -81 12 -96 41 -16 30 -5 76 19 82 14 3 18 14 18 44 0
31 -3 39 -14 35 -8 -4 -18 -6 -23 -6 -5 0 -12 -10 -16 -22 -4 -13 -15 -29 -25
-36 -18 -12 -18 -15 -3 -43 24 -47 24 -117 1 -169 -11 -25 -22 -47 -24 -49 -6
-8 -83 72 -83 86 0 7 -3 13 -7 13 -11 0 -63 95 -62 111 0 8 5 4 11 -8 13 -27
23 -29 32 -8 3 8 13 15 23 15 38 0 -5 20 -49 23 -26 1 -50 6 -54 10 -4 4 -13
2 -21 -4 -10 -9 -18 -6 -34 12 -37 42 -6 119 59 146 19 8 44 26 55 39 47 60
91 92 143 103 49 11 124 7 124 -8 -1 -11 -55 -70 -92 -99 -35 -27 -36 -30 -17
-35 25 -7 49 1 49 15 0 6 16 32 35 58 31 42 44 51 102 69 36 12 80 21 97 21
51 0 62 14 31 38 -28 22 -53 22 -155 -4 -61 -15 -102 -23 -82 -17 23 8 12 19
-30 30 -42 11 -68 8 -68 -8 0 -5 -9 -9 -19 -9 -13 0 -18 5 -15 18 3 11 -3 21
-18 27 -13 6 -24 19 -26 30 -4 29 33 65 67 65 55 0 86 18 88 51 2 26 -1 30
-17 26 -10 -3 -21 0 -23 6 -2 8 -10 6 -21 -6 -10 -9 -25 -17 -35 -17 -9 0 -22
-5 -28 -11 -7 -7 -22 -9 -40 -4 -15 4 -22 10 -15 12 6 3 12 12 12 21 0 12 -6
10 -26 -9 -20 -18 -24 -30 -20 -51 15 -71 16 -84 7 -98 -9 -13 -14 -13 -32 -2
-18 11 -24 11 -38 -2 -24 -21 -34 -20 -59 7 -26 27 -28 45 -7 53 8 3 14 16 13
27 0 12 3 31 7 41 7 16 5 18 -9 13 -26 -10 -83 18 -100 50 -28 55 -62 227 -58
293 3 45 34 130 48 130 7 0 18 9 24 21 6 11 34 46 61 77 27 31 59 69 71 84 12
14 34 29 48 31 59 12 117 29 147 42 17 8 36 15 42 15 5 0 14 8 19 17 7 11 23
17 50 17 39 1 41 0 35 -24 -3 -14 -15 -40 -26 -59 -13 -22 -17 -36 -10 -38 6
-2 8 -13 5 -25 -3 -15 -1 -19 9 -16 8 3 17 25 20 54 7 56 25 92 52 100 22 7
50 -14 43 -33 -3 -7 -2 -13 3 -13 5 0 11 9 14 20 5 21 1 21 112 -16 23 -8 50
-14 62 -14 34 0 113 -40 153 -79 21 -20 40 -60 40 -84 0 -11 3 -17 7 -13 4 3
12 -6 19 -21 7 -16 13 -21 13 -13 6 78 23 145 42 166 12 13 23 36 25 51 2 16
8 63 14 106 11 72 11 79 -7 95 -10 9 -30 35 -44 57 -20 30 -37 43 -70 53 -24
7 -49 15 -54 17 -13 7 -39 -51 -29 -66 5 -9 1 -10 -14 -7 -13 4 -31 -1 -45
-12 -12 -10 -42 -24 -66 -31 -42 -13 -44 -12 -67 14 -29 34 -49 34 -70 2 -17
-26 -48 -33 -59 -14 -5 6 -20 -3 -40 -25 l-33 -36 -38 16 c-42 17 -104 60
-117 81 -5 8 -15 10 -31 3 -13 -5 -51 -14 -84 -20 -76 -13 -105 -3 -158 57
l-42 47 -21 -42 c-12 -23 -26 -42 -32 -42 -6 0 -29 -16 -52 -35 -34 -29 -48
-35 -86 -35 -58 1 -98 29 -82 58 13 24 5 32 -31 32 -16 0 -43 7 -60 16 -20 10
-42 14 -64 10 -30 -6 -34 -4 -50 29 -9 19 -20 35 -25 35 -5 0 -9 5 -9 10 0 6
10 10 23 10 12 0 40 9 62 20 22 11 51 20 65 20 14 0 32 9 40 20 8 11 18 20 23
20 5 0 40 20 78 45 97 62 179 103 245 120 32 8 77 24 102 36 38 19 60 22 151
20 154 -2 171 -3 171 -14 0 -5 6 -7 14 -4 10 4 16 -2 18 -16 2 -12 12 -23 23
-26 11 -2 24 -8 28 -15 5 -6 6 2 4 19 -4 26 -3 27 7 12 17 -22 27 -11 20 19
-6 23 -4 24 45 24 47 0 77 -7 193 -46 26 -9 52 -13 57 -9 6 3 20 1 31 -5 11
-6 40 -12 63 -12 39 -2 56 -11 57 -30 0 -13 -18 -9 -23 5 -2 6 -2 2 0 -10 2
-13 -1 -24 -7 -24 -5 -1 -18 -2 -28 -3 -10 0 -48 -15 -83 -33 -35 -18 -85 -35
-111 -38 -27 -4 -48 -11 -48 -17 0 -7 -4 -7 -13 0 -8 7 -19 6 -36 -3 -24 -12
-22 -13 28 -20 31 -4 61 -15 72 -26 19 -19 55 -27 45 -10 -3 5 13 11 35 14 38
5 165 63 176 79 2 5 4 36 4 70 0 66 20 153 46 201 l15 29 -37 -6 c-21 -4 -41
-8 -45 -11 -22 -14 -228 -14 -450 -1 -140 9 -301 16 -357 16 -91 0 -136 10
-101 23 7 2 2 5 -12 5 -14 1 -34 3 -45 5 -11 3 -25 0 -31 -5 -8 -5 -14 -3 -17
6 -4 10 -1 13 9 9 21 -8 18 24 -7 63 -20 33 -20 35 -3 74 10 22 21 40 26 40
17 0 7 19 -13 25 -27 9 -171 156 -195 200 -10 19 -22 35 -26 35 -12 0 -10 -14
4 -28 10 -10 10 -14 0 -21 -9 -5 -11 -20 -6 -52 l7 -44 -36 39 c-20 21 -37 47
-37 58 0 10 -7 21 -15 24 -17 7 -19 32 -4 54 8 12 9 10 7 -9 -2 -13 3 -26 10
-28 7 -3 12 4 12 19 0 13 4 28 8 34 12 13 35 114 28 121 -3 3 -13 -8 -23 -26z
m178 -2771 c5 0 9 -11 9 -25 0 -14 5 -25 11 -25 5 0 7 5 4 10 -3 6 1 10 9 10
9 0 16 -4 16 -9 0 -5 9 -13 20 -16 33 -11 23 -19 -52 -45 -149 -50 -241 -90
-286 -124 -36 -28 -48 -33 -59 -24 -12 10 -12 13 1 26 8 9 25 16 38 18 13 1
26 3 31 3 4 1 7 12 7 26 0 55 122 165 183 165 9 0 19 5 22 11 4 6 14 8 22 5 8
-3 19 -6 24 -6z"/>
<path d="M615 3973 c-40 -10 -46 -23 -28 -54 10 -16 21 -29 25 -29 4 0 8 -4 8
-10 0 -6 -27 -10 -60 -10 -33 0 -60 -4 -60 -10 0 -5 5 -10 10 -10 6 0 10 -11
10 -25 0 -13 12 -36 26 -50 24 -25 30 -26 68 -17 23 6 62 7 88 3 27 -4 50 -6
53 -3 2 2 -9 24 -26 48 -38 56 -68 123 -69 152 0 22 -7 24 -45 15z"/>
<path d="M4740 3677 c0 -5 31 -70 70 -144 38 -75 66 -132 62 -127 -5 5 -26 31
-48 59 -82 104 -80 103 -89 38 -3 -27 -10 -61 -14 -78 -25 -83 -31 -75 49 -75
65 0 71 -2 64 -17 -14 -32 -4 -86 20 -113 26 -28 42 -67 52 -122 3 -21 10 -36
14 -33 8 5 26 -1 107 -36 24 -11 45 -19 48 -19 3 0 21 -16 40 -35 37 -36 41
-37 24 -2 -10 21 -10 21 6 2 8 -11 20 -36 25 -57 16 -56 27 -54 20 5 -6 40
-13 56 -35 72 -61 44 -66 51 -74 102 -8 51 -54 140 -96 186 -21 22 -66 124
-80 179 -4 15 -16 30 -27 34 -11 3 -17 12 -14 19 3 8 0 12 -8 9 -7 -3 -21 14
-34 43 -21 45 -82 126 -82 110z"/>
<path d="M696 3535 c-18 -14 -18 -15 -1 -42 24 -37 76 -82 96 -83 9 0 29 -10
44 -22 23 -18 43 -23 97 -24 37 0 68 3 68 7 0 4 -15 18 -32 30 -18 12 -60 46
-93 74 -33 29 -70 57 -82 63 -29 16 -74 14 -97 -3z"/>
<path d="M3200 3451 c0 -12 5 -21 12 -21 21 0 -3 -17 -77 -54 -68 -35 -95 -46
-65 -26 11 8 9 9 -10 5 -20 -5 -33 1 -58 25 -34 32 -71 50 -100 50 -12 0 -4
-13 26 -41 l43 -40 -40 -16 c-23 -9 -43 -24 -46 -34 -4 -10 -19 -26 -35 -35
-16 -10 -34 -27 -40 -38 -6 -12 -25 -28 -42 -35 -17 -8 -33 -22 -35 -32 -3
-10 -9 -16 -14 -13 -5 3 -9 -4 -9 -15 0 -28 17 -35 30 -11 6 11 17 20 24 20
15 0 16 -16 2 -38 -7 -11 -4 -11 12 -1 12 7 19 15 17 19 -2 3 7 6 18 6 40 3
162 44 187 64 22 17 24 22 12 40 -17 27 -7 40 67 87 70 45 122 63 180 63 49 0
130 -23 168 -47 14 -10 23 -11 28 -4 3 6 34 12 68 12 34 1 54 3 45 6 -10 2
-18 10 -18 16 0 8 -4 7 -12 -1 -17 -17 -45 -15 -52 3 -3 9 -19 15 -43 16 -29
0 -33 2 -18 8 14 6 -2 10 -53 15 -39 4 -76 4 -82 1 -5 -3 -10 1 -10 9 0 9 -4
16 -10 16 -5 0 -10 7 -10 15 0 11 -5 12 -26 5 -15 -6 -23 -6 -19 -1 3 5 1 12
-5 16 -5 3 -10 -3 -10 -14z"/>
<path d="M7823 3448 c-4 -7 -17 -37 -29 -66 l-22 -52 28 -20 c15 -11 31 -16
35 -12 5 4 5 2 1 -5 -12 -22 11 -23 38 -2 15 12 26 30 26 45 0 16 6 24 18 24
13 0 14 2 3 9 -9 6 -10 11 -2 15 6 4 16 4 22 0 7 -4 10 -1 7 7 -2 7 -18 17
-34 21 -17 4 -39 17 -49 28 -21 23 -31 25 -42 8z"/>
<path d="M9576 3424 c-4 -12 -13 -14 -32 -10 -19 5 -34 0 -57 -19 -18 -14 -37
-29 -42 -34 -6 -4 -28 -11 -49 -15 -27 -5 -42 -15 -54 -37 -21 -35 -36 -38
-28 -4 8 30 8 29 -32 9 -18 -8 -41 -13 -52 -9 -28 9 -57 -11 -65 -44 -8 -39
-53 -60 -129 -60 -32 0 -62 -3 -65 -8 -8 -11 -72 -10 -90 1 -10 6 -16 5 -19
-2 -2 -7 -17 -12 -33 -12 -16 0 -29 -4 -29 -10 0 -5 -6 -10 -14 -10 -15 0 -46
-26 -46 -38 0 -8 35 -24 104 -46 26 -9 60 -23 75 -31 25 -13 24 -13 -19 -9
-52 6 -172 43 -181 55 -3 5 -20 4 -38 -1 -19 -5 -38 -7 -42 -4 -5 3 -9 0 -9
-5 0 -6 9 -11 19 -11 11 0 23 -5 27 -11 9 -15 -32 -3 -66 19 -14 9 -47 27 -74
40 -26 14 -66 42 -89 63 -46 44 -53 46 -87 19 -14 -11 -31 -20 -39 -20 -7 0
-26 -11 -43 -25 -33 -28 -73 -32 -145 -13 -38 9 -47 9 -54 -4 -5 -9 -20 -23
-34 -32 -23 -15 -29 -15 -73 -1 -25 9 -64 26 -84 37 -48 27 -54 22 -46 -47 1
-11 1 -39 0 -62 -2 -38 -5 -43 -37 -54 -32 -12 -76 -64 -80 -94 -1 -5 -5 -18
-9 -28 -5 -11 -4 -23 3 -30 13 -13 15 -54 1 -62 -5 -3 -7 -12 -4 -19 3 -9 -9
-19 -35 -29 -42 -17 -39 -12 -56 -118 -7 -47 -69 -136 -122 -179 -46 -36 -51
-44 -39 -56 8 -8 22 -11 30 -8 16 6 23 -10 9 -19 -5 -2 -2 -2 6 0 8 2 22 -4
32 -13 18 -16 19 -16 19 -1 0 23 5 22 62 -13 26 -16 50 -30 53 -30 15 0 99
-67 145 -117 103 -110 140 -165 140 -206 0 -11 23 -44 50 -74 35 -38 52 -66
56 -92 8 -50 11 -54 64 -69 138 -41 175 -40 175 4 0 12 12 24 32 33 18 8 35
23 39 33 3 11 15 18 32 18 15 0 50 6 79 14 28 8 54 12 56 9 3 -2 20 -6 38 -7
76 -8 87 -19 124 -133 9 -29 21 -55 26 -58 12 -8 12 -8 -10 50 -10 28 -21 63
-25 80 -7 29 -7 29 13 11 11 -10 18 -23 15 -27 -6 -10 5 -49 35 -129 61 -161
-21 -43 -93 134 -9 22 -18 37 -21 35 -2 -3 16 -65 41 -139 53 -160 73 -255 57
-271 -6 -6 -33 -14 -60 -16 -26 -3 -53 -10 -59 -15 -12 -9 -122 13 -176 35
-29 12 -44 47 -25 59 7 4 7 8 2 8 -6 0 -19 -9 -29 -21 -14 -17 -24 -20 -49
-14 -18 3 -58 10 -89 15 -57 8 -136 52 -166 92 -14 19 -38 25 -27 8 3 -5 1
-10 -4 -10 -11 0 -84 -147 -94 -190 -3 -14 -13 -34 -21 -45 l-15 -20 3 20 c2
11 1 14 -1 8 -3 -7 -10 -13 -16 -13 -8 0 -7 -4 1 -12 15 -15 16 -32 2 -23 -5
3 -10 -1 -10 -9 0 -8 -21 -25 -47 -38 -26 -13 -58 -34 -71 -47 -40 -40 -53 7
-14 52 8 9 12 20 8 25 -5 4 -27 -14 -50 -39 -23 -26 -52 -49 -64 -53 -12 -4
-22 -12 -22 -17 0 -6 -4 -8 -9 -4 -6 3 -15 -3 -21 -12 -8 -13 -13 -14 -16 -5
-3 6 -18 12 -32 12 -30 0 -106 -32 -116 -49 -5 -7 -15 -7 -33 0 -19 7 -32 6
-49 -6 -13 -8 -24 -11 -24 -6 0 4 -11 9 -25 9 -25 0 -34 -21 -14 -33 21 -14 1
-30 -37 -31 -21 0 -56 -4 -78 -8 -36 -8 -38 -8 -31 13 5 17 2 24 -14 28 -11 3
-23 14 -26 24 -4 10 -13 19 -21 19 -17 0 -17 8 1 40 21 37 18 43 -10 23 -13
-10 -25 -25 -25 -34 0 -23 -44 -61 -56 -49 -7 7 -21 7 -42 -1 -24 -8 -36 -8
-46 0 -20 17 -76 2 -76 -20 0 -10 -4 -21 -10 -24 -21 -13 -9 -23 35 -30 62 -9
144 -38 189 -66 36 -23 37 -26 31 -69 -3 -25 -5 -60 -5 -79 0 -28 -3 -32 -17
-26 -51 21 -77 -13 -93 -125 -17 -111 -39 -184 -66 -215 -13 -15 -26 -42 -30
-61 -3 -18 -15 -40 -25 -50 -10 -9 -19 -25 -19 -34 0 -10 -7 -23 -15 -30 -13
-11 -13 -8 0 23 8 20 15 50 15 67 0 17 14 58 31 91 22 42 29 67 25 85 -4 14
-2 32 4 39 8 10 7 21 -5 44 -17 34 -30 39 -39 15 -5 -13 -14 -15 -41 -10 -20
4 -35 3 -35 -3 0 -5 13 -37 29 -71 l29 -62 -23 -51 c-14 -29 -34 -59 -46 -67
-21 -14 -22 -14 -10 9 14 25 9 37 -9 26 -8 -5 -10 -21 -7 -44 4 -26 0 -49 -16
-81 -25 -51 -66 -102 -77 -95 -4 3 -14 -2 -21 -11 -11 -13 -11 -15 2 -14 32 5
49 -1 49 -16 0 -10 -6 -14 -15 -10 -9 3 -15 0 -15 -9 0 -20 12 -19 36 3 10 10
27 21 36 25 10 3 21 19 24 34 7 26 29 52 47 53 13 0 7 -134 -7 -162 l-15 -28
86 0 c76 0 84 2 72 16 -10 12 -10 22 -1 47 21 61 24 110 7 156 -8 25 -11 47
-7 50 18 12 42 72 52 128 33 206 44 220 190 229 41 3 95 13 119 22 45 16 94
56 83 67 -4 3 -2 9 3 13 22 16 33 48 23 67 -9 14 -8 17 3 13 15 -6 20 37 6 58
-14 23 56 54 120 53 22 -1 53 -9 68 -19 19 -12 39 -17 60 -13 54 9 96 -13 180
-92 44 -41 83 -75 87 -75 4 0 14 -7 23 -16 26 -26 31 -7 7 26 -23 31 -32 74
-11 53 6 -6 18 -9 25 -6 8 3 14 0 14 -6 0 -16 28 -14 60 5 25 16 30 16 60 0
18 -9 41 -16 52 -16 10 0 18 -6 18 -14 0 -22 28 -39 55 -32 18 5 25 13 25 31
0 33 25 32 26 0 1 -14 -2 -25 -7 -25 -5 0 -9 -4 -9 -10 0 -5 7 -10 15 -10 8 0
15 5 15 10 0 18 19 10 25 -11 8 -24 -9 -41 -32 -32 -7 3 -13 -1 -13 -10 0 -8
6 -18 13 -20 7 -3 5 -6 -6 -6 -10 -1 -20 6 -23 14 -5 12 -8 12 -20 0 -8 -7
-14 -18 -14 -24 0 -17 -15 -13 -46 14 -30 26 -78 31 -80 8 -3 -24 -4 -25 -17
-15 -8 7 -18 6 -31 -3 -16 -12 -17 -18 -6 -50 17 -51 18 -96 3 -127 -18 -38
-16 -44 7 -23 15 14 20 15 20 4 0 -12 2 -12 9 0 16 26 24 -74 11 -146 -16 -91
-53 -168 -90 -184 -28 -13 -32 -29 -7 -29 7 0 39 22 72 50 76 62 164 98 202
81 14 -6 27 -10 28 -9 1 2 8 13 14 26 10 20 10 27 -3 41 -33 37 -24 45 76 71
147 37 198 37 198 -1 0 -13 -7 -19 -22 -19 -17 0 -19 -3 -10 -12 25 -25 10
-27 -25 -4 -21 14 -51 28 -68 31 -26 6 -23 3 17 -22 26 -16 58 -38 71 -49 19
-17 44 -22 123 -28 54 -3 117 -11 139 -16 22 -5 61 -10 87 -10 26 0 50 -5 53
-10 4 -6 11 -8 16 -4 6 3 46 3 90 -1 l81 -7 -29 -30 c-15 -16 -46 -39 -68 -50
-22 -11 -59 -38 -82 -59 l-43 -39 313 0 c265 1 309 3 294 15 -23 16 -20 68 4
73 9 2 26 -12 40 -33 13 -19 27 -35 32 -35 4 0 7 494 7 1097 l-1 1098 -32 1
c-18 1 -26 -1 -19 -3 23 -8 12 -20 -14 -15 -19 3 -24 9 -21 23 4 16 1 18 -18
13 -31 -8 -80 23 -65 41 8 9 6 14 -6 19 -9 3 -20 3 -26 0 -24 -15 -138 63
-138 95 0 6 -4 11 -10 11 -5 0 -10 -3 -10 -7 0 -5 -15 -16 -32 -26 -29 -17
-33 -17 -44 -3 -6 9 -18 16 -27 16 -8 0 -18 7 -21 15 -4 13 -17 14 -61 10 -50
-6 -58 -4 -74 17 -16 19 -21 20 -35 9 -13 -11 -18 -10 -31 2 -21 22 -19 30 7
21 21 -6 21 -6 5 11 -10 9 -23 15 -30 12 -7 -3 -21 1 -30 8 -17 12 -15 16 23
56 37 39 46 43 83 42 23 -1 53 0 67 4 21 4 18 7 -25 19 -27 7 -64 13 -80 14
-20 0 -36 8 -49 25 -24 32 -34 24 -32 -24 2 -36 0 -38 -19 -31 -31 12 -80 61
-104 105 -25 47 -26 56 -6 49 10 -4 15 0 15 13 0 16 11 22 56 32 41 9 59 10
67 2 6 -6 19 -11 29 -11 10 0 21 -7 24 -15 4 -11 10 -12 18 -6 23 19 110 43
140 38 34 -5 81 13 115 44 11 11 21 16 21 12 0 -4 6 -1 13 7 37 45 96 40 121
-9 12 -21 16 -23 21 -10 5 12 17 5 60 -35 30 -28 55 -59 55 -68 0 -29 12 -48
30 -48 17 0 35 -38 24 -49 -3 -3 -7 5 -11 17 -3 12 -9 19 -14 17 -8 -6 6 -48
25 -73 5 -7 10 -25 11 -39 0 -14 10 -32 20 -40 14 -11 16 -17 8 -20 -7 -3 -13
-13 -13 -24 0 -12 -7 -19 -20 -19 -17 0 -20 -5 -16 -27 2 -16 5 -34 5 -40 1
-7 6 -13 12 -13 5 0 7 5 4 10 -4 6 7 15 24 21 l31 11 0 105 c0 95 -2 107 -25
141 -14 20 -25 42 -25 48 0 6 -13 29 -28 50 -16 22 -27 45 -24 53 6 19 -24 40
-48 34 -14 -4 -24 5 -39 36 -12 22 -21 44 -21 50 0 17 29 6 58 -22 15 -15 33
-27 40 -27 6 0 9 -6 6 -14 -3 -8 4 -24 15 -35 12 -12 21 -29 21 -38 1 -19 22
-53 34 -53 3 0 6 8 6 19 0 10 7 24 15 31 12 10 15 37 15 126 0 105 -2 114 -21
124 -11 7 -18 14 -15 17 3 3 12 0 21 -7 13 -11 15 9 15 184 0 178 -6 226 -24
180z m-1633 -609 c111 -56 137 -65 186 -66 32 -1 67 4 79 10 11 6 36 11 54 11
19 0 44 7 56 16 14 10 37 14 57 12 18 -2 31 0 29 4 -3 4 10 8 29 8 19 0 47 4
63 9 16 5 55 11 86 14 57 4 57 3 64 -27 10 -41 7 -54 -22 -98 -21 -32 -30 -38
-61 -38 -20 0 -41 -6 -47 -15 -9 -13 -24 -13 -101 -5 -49 6 -112 17 -140 25
-71 21 -187 36 -200 26 -5 -5 -23 -11 -40 -13 -16 -3 -24 -3 -17 -1 10 4 9 8
-5 19 -10 7 -22 13 -28 14 -5 0 -3 -5 5 -11 12 -8 10 -9 -10 -7 -14 2 -25 9
-25 16 0 14 -25 33 -36 26 -4 -2 -26 6 -50 18 -28 16 -43 31 -46 47 -3 20 0
23 22 19 20 -4 23 -2 14 8 -7 9 -18 10 -39 3 -40 -14 -87 11 -63 34 17 18 68
2 186 -58z m717 -424 c0 -9 4 -21 10 -27 11 -11 17 -50 25 -144 3 -35 8 -79
11 -97 8 -40 -7 -43 -66 -13 -51 26 -51 26 -45 -12 5 -27 4 -30 -9 -18 -10 7
-23 9 -33 5 -10 -5 -22 -7 -27 -6 -6 1 -20 0 -33 -4 -18 -4 -23 -12 -21 -28 4
-27 -43 -46 -119 -46 -59 -1 -66 8 -46 57 7 17 11 32 8 32 -2 0 0 11 5 25 7
18 6 23 -4 19 -7 -3 -25 7 -40 21 -21 20 -25 29 -17 39 10 12 6 46 -6 46 -3 0
-28 -11 -55 -25 -53 -27 -107 -65 -92 -65 5 0 -4 -7 -20 -15 -16 -9 -31 -13
-34 -10 -3 3 -12 0 -19 -7 -11 -9 -16 -9 -22 0 -4 7 -15 10 -24 6 -13 -5 -16
-2 -11 9 4 12 1 14 -15 10 -17 -4 -20 -2 -15 11 4 11 1 16 -10 16 -25 0 -19
20 7 21 16 1 18 2 5 6 -25 6 -22 19 5 28 21 7 21 7 -7 14 -47 10 -45 31 4 31
33 0 40 3 38 18 -4 21 36 20 58 -3 20 -20 31 -19 61 5 14 11 32 20 40 20 8 0
12 3 10 8 -3 4 10 8 29 9 19 1 34 -2 34 -6 0 -4 9 -17 21 -30 16 -17 24 -19
34 -11 8 6 26 10 42 8 23 -2 28 -8 28 -30 1 -33 1 -34 48 -42 33 -6 37 -5 37
14 0 11 4 20 9 20 9 0 35 58 40 89 0 4 13 8 29 8 15 -1 33 1 41 4 16 4 17 3
26 -86 6 -55 8 -58 21 -40 8 11 12 26 9 34 -3 8 2 36 10 62 9 26 15 54 14 61
-3 27 2 37 16 32 8 -4 15 -14 15 -23z m-454 -1003 c3 -10 10 -18 16 -18 6 0
29 -15 52 -34 23 -18 55 -40 73 -49 17 -9 49 -33 70 -52 21 -19 44 -35 51 -35
6 0 12 -4 12 -9 0 -5 10 -11 21 -13 37 -5 97 -86 102 -138 2 -25 2 -37 0 -28
-3 14 -15 6 -56 -36 -56 -57 -125 -101 -114 -73 9 23 -25 32 -40 11 -11 -14
-15 -15 -29 -3 -14 11 -18 11 -30 -6 -8 -10 -14 -14 -14 -7 0 6 -6 9 -14 6 -8
-3 -23 -1 -35 5 -14 8 -27 8 -48 -1 -15 -6 -36 -10 -45 -9 -11 1 -18 -4 -18
-14 0 -10 -7 -14 -22 -12 -13 2 -18 2 -11 0 16 -6 25 -33 10 -34 -7 0 -2 -4
11 -10 15 -5 30 -5 42 1 22 12 30 13 30 2 0 -4 -19 -13 -42 -20 -36 -10 -52
-10 -98 3 -30 9 -64 17 -75 19 -11 2 -40 9 -65 16 -40 11 -43 13 -22 21 12 5
22 15 22 24 0 8 4 15 9 15 15 0 126 108 119 115 -4 4 -23 -2 -43 -14 -48 -28
-147 -61 -184 -61 -16 0 -42 5 -56 10 l-27 10 43 40 c33 31 51 40 79 40 51 0
80 10 80 27 0 11 7 13 25 9 18 -5 25 -2 25 9 0 22 -4 30 -13 27 -5 -1 -7 3 -5
10 3 8 16 12 31 10 32 -4 34 1 8 27 -19 19 -19 22 -3 63 9 24 20 44 24 46 4 2
5 21 2 42 -5 32 -3 40 15 49 12 7 18 17 14 27 -4 12 2 11 31 -5 50 -29 61 -26
37 8 -12 16 -21 32 -21 35 0 13 70 -29 76 -46z m430 -513 c20 -8 47 -12 59 -9
28 7 67 -4 60 -17 -4 -5 8 -6 27 -3 l33 6 -30 -17 c-28 -15 -34 -15 -90 1 -33
10 -68 24 -77 32 -17 14 -26 3 -11 -12 4 -4 8 -22 10 -41 2 -40 -16 -58 -58
-57 -26 1 -30 -2 -26 -19 4 -14 -3 -25 -21 -37 -15 -9 -34 -24 -43 -34 -9 -10
-19 -18 -22 -18 -13 0 96 201 119 219 32 25 26 25 70 6z m145 -545 c10 0 19
-4 19 -10 0 -13 31 -13 50 1 12 8 11 9 -5 5 -15 -5 -21 -1 -21 12 0 17 3 17
26 5 14 -7 32 -13 40 -13 9 -1 5 -7 -10 -16 -14 -8 -17 -13 -7 -10 11 3 27 -2
39 -14 12 -11 18 -20 12 -21 -5 0 0 -4 10 -8 22 -8 -168 -13 -197 -5 -9 3 -15
10 -12 15 4 5 1 9 -5 9 -7 0 -9 7 -6 16 4 10 -1 22 -11 29 -15 11 -15 17 -5
40 l12 26 26 -30 c14 -17 34 -31 45 -31z"/>
<path d="M2433 3074 c-18 -9 -33 -23 -33 -31 0 -8 -4 -11 -10 -8 -5 3 -10 -1
-10 -10 0 -11 -5 -15 -14 -12 -10 4 -17 -7 -25 -38 -6 -24 -15 -47 -21 -50 -5
-3 -10 -11 -10 -18 0 -6 6 -2 14 9 18 24 31 12 15 -14 -7 -11 -19 -18 -26 -15
-7 3 -13 -2 -13 -11 0 -12 7 -14 30 -10 18 4 36 1 45 -6 19 -15 78 -6 96 16
10 13 10 17 -1 24 -13 8 -12 24 7 153 6 41 2 43 -44 21z"/>
<path d="M2604 2988 c-37 -33 -77 -105 -67 -121 3 -4 -1 -7 -8 -6 -22 3 -52
-13 -39 -21 11 -7 -64 -90 -82 -90 -5 0 -6 -4 -3 -10 3 -5 1 -10 -5 -10 -6 0
-9 -4 -6 -9 4 -5 0 -11 -6 -14 -7 -2 -10 -8 -6 -12 4 -4 19 4 34 18 14 14 42
31 62 38 46 15 86 45 72 54 -19 12 -10 41 25 75 21 22 34 45 35 61 0 16 10 34
25 45 14 10 25 22 25 26 0 16 -20 7 -56 -24z"/>
<path d="M4330 2823 c35 -15 42 -32 35 -86 -10 -76 -44 -195 -72 -251 -13 -26
-22 -55 -19 -63 4 -9 2 -11 -6 -7 -7 5 -9 2 -5 -8 3 -9 -1 -25 -10 -37 -8 -12
-12 -29 -9 -37 4 -10 -3 -18 -20 -24 -19 -8 -25 -16 -21 -30 3 -11 1 -20 -4
-20 -5 0 -9 5 -9 11 0 20 -17 -1 -79 -100 -48 -77 -69 -103 -90 -107 -47 -10
-53 -14 -48 -28 3 -8 -1 -17 -9 -20 -9 -3 -14 -20 -14 -45 0 -22 -4 -43 -10
-46 -5 -3 -10 -14 -10 -23 0 -15 2 -15 10 -2 5 8 14 16 20 16 5 1 15 2 20 3 6
0 10 6 10 12 0 7 10 20 21 30 14 12 19 24 15 36 -5 13 -4 15 3 8 17 -17 34
-125 27 -178 -7 -61 -27 -117 -41 -117 -7 0 -17 -11 -23 -24 -15 -33 -56 -59
-92 -58 -26 1 -29 -3 -35 -41 -12 -79 -17 -97 -26 -97 -5 0 -24 -22 -41 -49
-32 -53 -62 -68 -112 -55 -41 10 -63 93 -34 122 9 9 7 13 -6 18 -20 8 -66 -31
-66 -56 0 -9 -6 -22 -12 -29 -10 -10 -10 -12 -1 -7 16 9 -14 -66 -31 -76 -17
-11 -26 -9 -26 5 0 10 -16 13 -57 12 -59 -2 -103 -17 -103 -36 0 -6 -7 -8 -16
-5 -10 4 -34 -14 -72 -55 -67 -72 -123 -105 -151 -89 -11 5 -21 15 -23 21 -4
13 -103 15 -194 4 -76 -9 -124 -1 -153 26 -16 15 -20 27 -15 42 6 20 5 20 -10
8 -26 -22 -36 -45 -25 -62 8 -12 10 -12 20 1 9 13 10 12 5 -2 -3 -10 -1 -20 4
-23 6 -4 10 -1 10 4 0 6 5 11 11 11 5 0 8 -3 6 -7 -5 -8 22 -12 76 -13 15 0
27 -5 27 -11 0 -8 12 -10 34 -6 24 4 39 1 47 -9 7 -8 20 -12 34 -8 16 4 29 -1
44 -17 12 -13 28 -24 38 -25 9 -2 19 -8 23 -14 4 -7 33 -27 65 -45 56 -31 57
-33 36 -45 -13 -6 -20 -14 -17 -17 10 -10 222 -12 296 -3 89 11 308 -9 336
-31 6 -5 23 -10 38 -11 15 -1 34 -10 42 -19 11 -12 26 -15 58 -12 35 4 48 1
65 -16 12 -12 26 -19 30 -17 5 3 19 -2 32 -12 13 -10 52 -27 86 -37 48 -15 59
-22 51 -33 -15 -18 -6 -23 30 -16 18 4 34 14 37 25 4 11 11 19 16 19 5 0 9 3
9 8 0 12 -145 82 -172 82 -14 0 -33 9 -44 21 -27 30 -68 49 -93 42 -25 -6 -81
13 -98 35 -7 9 -13 27 -13 41 0 14 -6 37 -14 51 -64 117 -76 141 -68 136 13
-8 34 18 24 30 -4 4 14 -8 40 -29 44 -35 76 -51 50 -25 -7 7 -12 18 -12 26 0
12 3 12 16 1 13 -11 17 -10 25 4 6 9 15 17 22 17 7 1 21 15 32 32 22 34 36 44
78 53 15 3 27 10 27 15 0 6 -12 10 -27 10 -34 0 -65 19 -45 27 9 3 10 9 2 18
-8 9 -6 21 7 44 15 24 16 34 6 50 -10 15 -8 22 8 40 11 11 26 21 34 21 9 0 13
11 13 31 -1 17 5 35 12 39 7 4 10 15 7 23 -5 14 20 47 36 47 3 0 17 4 31 10
18 6 24 14 19 26 -5 13 -8 13 -15 2 -7 -9 -8 -3 -4 18 4 25 0 36 -21 54 -19
16 -22 24 -13 30 8 5 10 17 6 34 -4 15 -1 45 5 66 10 34 10 43 -5 59 -36 40
-13 162 34 174 26 7 26 -6 -1 -18 -27 -12 -26 -29 1 -33 12 -2 20 -11 20 -22
0 -20 -27 -53 -39 -46 -4 3 -7 -5 -8 -17 0 -12 1 -16 4 -9 3 6 9 12 15 12 7 0
9 -16 5 -45 -5 -31 -3 -47 6 -52 7 -4 20 -18 29 -31 l15 -23 6 37 c3 19 16 56
27 80 17 34 27 44 46 44 13 0 34 6 47 13 12 6 23 13 25 14 2 1 -4 12 -13 26
-17 27 -7 44 20 33 11 -4 13 2 9 27 -3 18 -8 38 -10 45 -2 7 0 11 5 7 5 -3 13
25 16 62 9 79 24 110 71 142 19 13 34 27 34 32 0 5 8 9 18 9 12 1 8 6 -12 17
-24 12 -38 14 -73 6 -40 -10 -43 -9 -30 6 8 9 17 39 20 68 3 29 20 80 37 115
l31 63 -21 17 c-27 22 -44 23 -59 4 -10 -11 -10 -20 -1 -37 15 -26 8 -90 -15
-139 -15 -33 -16 -33 -9 -5 4 17 7 62 8 101 1 41 7 78 14 87 16 19 7 25 -49
32 -24 3 -37 2 -29 -2z m31 -483 c-11 -81 -27 -117 -70 -157 -27 -26 -42 -28
-58 -12 -11 11 0 55 18 69 3 3 9 14 13 24 14 39 101 177 104 166 2 -6 -1 -47
-7 -90z"/>
<path d="M4938 2808 c15 -8 22 -20 22 -39 0 -22 6 -30 25 -35 33 -8 32 -37 -1
-63 -23 -18 -27 -30 -32 -90 l-4 -68 54 10 c96 17 137 -8 81 -49 -39 -28 -65
-37 -73 -24 -4 7 -18 1 -37 -17 -28 -26 -30 -31 -18 -54 12 -22 10 -27 -15
-56 -16 -17 -31 -29 -34 -26 -14 15 -4 -12 12 -30 16 -19 16 -20 0 -14 -10 4
-18 2 -18 -4 0 -6 -6 -6 -17 -1 -10 6 -37 13 -59 17 -41 6 -42 6 -52 -27 -27
-85 -26 -94 12 -123 20 -15 36 -33 36 -40 0 -7 11 -20 25 -29 44 -29 27 -72
-24 -61 -35 7 -38 16 -15 40 23 23 8 32 -16 10 -12 -10 -18 -25 -16 -32 6 -15
-28 -59 -58 -75 -14 -8 -24 -4 -47 18 -16 15 -29 34 -29 41 0 7 -4 13 -10 13
-5 0 -10 -13 -10 -28 0 -36 -26 -60 -71 -68 -19 -3 -70 -22 -114 -42 -62 -28
-93 -37 -137 -37 -32 0 -58 -3 -58 -7 0 -5 -7 -8 -16 -8 -12 0 -14 -5 -9 -17
5 -10 9 -40 10 -68 1 -27 7 -61 14 -74 10 -17 11 -42 6 -85 -4 -34 -8 -74 -8
-89 -1 -16 -11 -36 -23 -46 -19 -15 -20 -19 -7 -38 9 -13 16 -50 16 -89 l2
-68 -32 -9 c-18 -6 -35 -18 -38 -28 -3 -10 -15 -21 -26 -24 -22 -7 -25 -22 -6
-27 10 -2 11 -11 5 -35 -7 -26 -15 -33 -43 -39 -34 -6 -53 -20 -42 -30 3 -3
24 -7 46 -8 23 -2 51 -12 62 -22 17 -15 23 -16 40 -6 15 10 19 10 17 0 -2 -7
4 -13 12 -13 8 0 30 -6 47 -14 18 -7 39 -11 48 -7 8 3 14 2 14 -2 -1 -4 -1
-17 0 -30 1 -21 5 -23 44 -21 23 1 46 5 52 8 20 11 145 9 146 -3 0 -6 4 -1 9
11 8 19 18 23 52 24 24 1 49 1 56 0 6 -1 12 3 12 8 0 5 9 13 20 16 33 10 23
24 -13 18 -23 -3 -37 0 -46 11 -7 9 -20 16 -27 16 -9 0 -14 12 -14 36 0 30 -5
37 -32 49 -46 19 -104 84 -111 122 -6 32 -6 32 26 26 18 -3 43 -11 57 -18 14
-7 37 -15 51 -18 30 -8 49 -43 42 -80 -4 -17 -1 -27 7 -27 7 0 10 7 6 15 -3 8
-3 22 0 30 5 11 8 12 18 2 7 -7 16 -19 19 -27 4 -8 5 -3 2 12 -5 26 -5 26 24
12 16 -8 50 -15 76 -16 59 -3 90 -35 82 -85 -7 -38 -4 -39 22 -16 14 12 17 22
11 38 -6 16 -3 24 12 34 17 11 22 10 29 -1 5 -7 9 -17 9 -21 0 -13 89 -3 95
10 2 7 12 10 21 6 13 -5 15 -3 9 7 -5 9 -4 11 3 6 13 -8 -16 -74 -46 -104 -30
-30 -140 -112 -151 -112 -5 0 -12 -4 -16 -10 -3 -5 19 -16 50 -25 30 -9 55
-21 55 -26 0 -14 -67 -2 -100 18 -29 17 -30 17 -57 -8 -16 -14 -57 -38 -93
-54 -36 -15 -69 -31 -75 -36 -5 -5 -23 -9 -40 -9 -18 0 -35 -3 -38 -7 -13 -12
48 -43 86 -43 24 0 51 -9 69 -22 25 -17 34 -19 49 -10 17 11 19 9 19 -16 0
-37 -8 -44 -33 -31 -14 8 -22 8 -27 -1 -4 -6 -18 -11 -31 -9 -33 3 -59 -10
-53 -26 5 -12 -43 -55 -63 -55 -4 -1 -19 -23 -32 -50 -13 -28 -28 -50 -32 -50
-16 0 -28 -37 -21 -61 7 -23 8 -24 25 -7 14 15 14 18 2 18 -21 0 -19 8 11 39
14 14 55 58 92 98 67 71 67 72 91 54 24 -19 27 -68 3 -63 -7 1 -26 -25 -43
-60 -17 -35 -36 -74 -44 -88 -18 -31 -6 -36 34 -15 17 8 50 18 74 21 33 5 43
11 44 25 1 10 -2 19 -7 19 -10 0 -25 40 -21 59 1 7 -2 10 -8 6 -12 -7 -15 27
-4 38 9 9 65 -125 58 -140 -2 -7 8 -24 22 -37 24 -22 25 -28 15 -51 -7 -14
-12 -37 -12 -52 l0 -25 20 23 c26 32 26 9 -1 -25 -11 -14 -19 -36 -18 -48 2
-13 0 -29 -5 -36 -7 -11 -4 -12 12 -3 17 9 20 8 18 -13 -1 -20 -4 -22 -15 -13
-15 13 -16 14 5 -37 7 -18 6 -18 -14 0 -12 10 -22 24 -22 31 0 27 -18 12 -23
-19 -4 -18 -9 -43 -13 -55 -6 -21 -4 -21 108 -22 l113 -1 25 37 c14 21 33 47
43 57 9 11 17 25 17 30 0 6 9 17 20 24 12 7 20 23 20 40 0 35 9 45 27 31 15
-13 15 -13 18 73 1 32 5 61 8 65 16 16 30 -20 30 -77 0 -67 7 -75 24 -30 16
41 43 40 43 -2 1 -28 2 -30 11 -15 6 10 9 38 7 63 -2 24 1 44 5 44 5 0 7 29 5
65 l-3 65 38 20 c53 29 131 27 151 -2 9 -12 16 -32 16 -43 0 -11 7 -32 17 -45
15 -24 15 -24 -13 3 -28 25 -54 35 -54 20 0 -3 12 -22 26 -41 20 -25 23 -36
14 -42 -9 -6 -9 -13 -1 -28 26 -49 -8 -132 -54 -132 -14 0 -25 -4 -25 -8 0 -9
49 -36 83 -46 9 -3 17 -13 17 -22 0 -11 -5 -14 -16 -10 -9 3 -30 6 -47 6 -21
0 -28 3 -19 9 11 7 10 10 -3 15 -9 3 -21 4 -26 0 -5 -3 -9 -1 -9 4 0 5 -8 12
-17 16 -10 3 -24 9 -32 12 -20 9 29 -75 57 -96 29 -23 28 -30 -5 -30 -31 0
-60 -15 -47 -22 5 -3 77 -6 160 -7 139 -1 152 1 169 19 10 11 28 20 39 20 20
-1 20 -1 -3 -20 l-23 -20 226 0 226 0 -11 22 c-28 53 -29 59 -20 77 9 16 7 17
-14 13 -17 -3 -25 -11 -25 -26 -1 -21 -1 -21 -16 -1 -8 11 -24 31 -36 44 -19
22 -19 25 -3 33 15 9 13 12 -14 29 -26 16 -30 23 -25 48 6 26 4 29 -14 24 -16
-4 -24 3 -37 27 l-17 33 26 -5 c31 -6 45 8 17 17 -11 3 -29 21 -41 40 -11 18
-27 36 -35 39 -8 3 -18 19 -22 36 -12 44 -29 32 -25 -18 4 -47 0 -47 -65 -9
-28 16 -31 21 -22 44 5 13 7 29 3 34 -9 16 16 78 37 89 23 13 25 30 4 30 -16
0 -12 42 9 93 14 33 19 34 44 2 23 -29 28 -30 36 -9 3 8 2 12 -4 9 -15 -9 -42
22 -38 43 2 9 12 17 23 17 12 0 20 7 20 17 0 10 16 29 35 43 44 32 60 33 23 0
l-28 -24 31 -1 c16 0 39 -7 50 -15 10 -8 26 -15 35 -15 9 0 25 -8 37 -18 20
-18 20 -20 4 -37 -9 -10 -11 -15 -4 -11 8 5 12 -2 12 -23 0 -17 -4 -31 -10
-31 -5 0 -10 5 -10 10 0 6 -6 10 -13 10 -8 0 -24 9 -37 20 -13 11 -30 20 -39
20 -11 0 -9 -4 7 -16 32 -22 27 -31 -18 -38 -22 -3 -40 -11 -40 -16 0 -6 10
-8 23 -6 62 13 106 15 112 6 3 -5 1 -10 -5 -10 -8 0 -10 -9 -6 -26 5 -20 2
-30 -14 -41 -11 -8 -20 -20 -20 -28 0 -7 -5 -15 -12 -17 -6 -2 -11 -18 -11
-36 0 -29 -1 -30 -16 -14 -9 9 -30 25 -46 34 -17 9 -30 24 -30 32 0 8 -4 18
-8 22 -4 4 -7 2 -7 -6 0 -10 -4 -10 -17 1 -15 12 -16 12 -9 -6 5 -11 8 -29 8
-40 -1 -14 1 -16 7 -7 6 10 11 10 21 -3 17 -20 84 -51 130 -60 41 -7 110 18
110 40 0 22 19 18 57 -11 34 -26 56 -27 35 -1 -9 10 -8 17 1 26 15 15 -1 27
-51 36 -24 4 -38 2 -44 -7 -8 -10 -9 -9 -5 3 3 9 0 22 -6 28 -8 8 -6 15 9 25
17 13 17 15 3 21 -19 7 -32 56 -23 90 4 16 14 25 32 27 20 2 29 11 36 36 6 21
6 36 0 40 -5 4 -10 21 -11 37 -5 75 -8 78 -74 73 l-59 -4 44 30 c25 17 47 39
49 48 5 18 27 25 27 9 0 -5 9 -7 21 -4 11 3 18 11 15 19 -10 25 17 27 35 3 18
-23 19 -23 19 -3 0 26 15 40 52 49 20 5 29 2 37 -12 8 -17 23 -19 103 -21 51
-1 95 -7 96 -12 5 -15 24 -12 51 9 l25 19 -82 41 c-77 39 -82 43 -82 74 0 32
1 32 18 11 28 -36 59 -46 113 -39 27 4 51 10 53 13 2 4 -29 34 -69 67 -40 33
-71 62 -70 64 2 2 -7 14 -21 28 -13 13 -24 31 -24 39 0 8 -4 12 -10 9 -5 -3
-10 0 -10 8 0 7 -18 29 -40 48 -22 19 -40 39 -40 46 0 6 -5 24 -10 38 -9 23
-13 25 -25 15 -18 -15 -18 -10 -5 26 8 19 7 30 -2 42 -15 17 -18 175 -4 189 5
4 11 2 13 -5 3 -6 9 -9 15 -6 6 4 5 10 -3 15 -19 12 17 38 53 39 15 0 30 5 33
10 3 6 13 10 22 10 9 0 23 9 33 20 16 19 88 50 115 50 23 0 107 -63 94 -70 -6
-4 -8 -13 -5 -19 4 -6 1 -11 -7 -11 -15 0 -32 -29 -22 -38 3 -3 5 0 5 6 0 17
42 15 68 -4 12 -8 22 -10 22 -5 0 6 5 11 11 11 6 0 8 -7 5 -15 -3 -8 -9 -22
-12 -30 -3 -8 -2 -15 4 -15 6 0 13 14 17 30 4 17 13 30 21 30 8 0 14 9 14 21
0 19 4 20 52 14 44 -6 50 -5 37 6 -8 8 -26 20 -41 28 -31 16 -28 31 11 54 36
21 75 22 91 2 7 -8 17 -15 22 -15 6 0 6 5 -1 14 -9 10 -8 16 4 26 9 7 14 19
11 27 -6 14 3 16 29 7 13 -5 14 -8 3 -15 -10 -7 -9 -9 5 -9 9 0 17 5 17 12 0
6 11 -1 24 -17 13 -15 29 -24 35 -21 6 4 9 12 6 17 -4 5 -1 9 5 9 8 0 7 6 -1
21 -15 29 -2 39 54 42 26 1 47 6 47 11 0 20 28 -17 34 -45 3 -17 10 -28 16
-24 5 3 24 -9 42 -28 18 -18 57 -44 86 -57 28 -13 52 -28 52 -34 0 -6 7 -1 15
11 13 18 13 25 1 48 -8 14 -16 26 -20 26 -28 -3 -38 2 -46 24 -5 14 -17 25
-27 25 -10 0 -23 12 -30 26 -12 26 -12 26 23 20 29 -6 38 -3 58 21 l24 28 -24
13 c-13 7 -24 17 -24 22 0 6 -7 10 -15 10 -8 0 -15 6 -15 13 0 17 -42 57 -60
57 -8 0 -24 10 -38 23 -21 19 -25 20 -35 7 -7 -8 -23 -20 -37 -26 -17 -8 -26
-20 -28 -38 -3 -35 -20 -66 -49 -89 -13 -10 -21 -22 -18 -27 3 -5 1 -11 -5
-15 -5 -3 -10 -1 -10 4 0 6 -7 11 -15 11 -8 0 -15 -4 -15 -9 0 -13 -141 -6
-187 10 -21 6 -47 18 -58 25 -18 13 -17 14 15 14 23 0 30 3 22 9 -10 6 -9 10
7 14 28 7 27 25 -3 33 -23 5 -41 38 -30 56 3 4 22 8 42 7 32 -1 34 -2 12 -8
-14 -4 -26 -15 -28 -24 -4 -20 11 -22 30 -4 7 8 23 19 36 26 12 6 22 16 22 21
0 5 4 20 10 35 8 22 13 24 30 15 13 -7 20 -7 20 0 0 5 7 10 16 10 8 0 12 5 9
10 -3 6 -1 10 6 10 8 0 8 4 -1 15 -10 12 -10 15 1 16 8 1 -4 7 -25 13 -33 10
-47 10 -95 -6 -31 -11 -78 -22 -106 -25 -64 -8 -124 -35 -153 -67 -12 -15 -25
-26 -30 -26 -11 0 -120 39 -140 50 -9 5 -35 17 -56 26 -22 10 -67 45 -100 77
-77 75 -96 88 -124 80 -29 -7 -24 -23 16 -48 17 -11 31 -24 32 -29 0 -18 81
-85 128 -107 26 -12 58 -27 71 -33 18 -8 20 -12 8 -14 -9 -2 -27 4 -41 14 -16
10 -36 14 -54 11 -17 -4 -50 4 -89 19 -34 13 -83 25 -109 26 -25 2 -40 4 -33
7 15 5 -53 27 -131 42 -68 14 -86 23 -93 49 -7 27 5 25 33 -5 13 -14 33 -25
44 -25 18 0 17 3 -10 32 -16 17 -23 28 -16 24 19 -11 14 1 -10 25 -13 12 -17
19 -11 15 8 -4 6 5 -4 22 -15 26 -21 29 -41 21 -31 -12 -32 -12 -26 6 4 8 1
15 -5 15 -6 0 -11 -5 -11 -10 0 -7 -6 -7 -18 -1 -14 7 -25 6 -40 -5 -26 -18
-156 -21 -176 -4 -11 8 -15 8 -18 0 -2 -7 -15 0 -31 15 -30 31 -27 48 8 39 17
-4 33 1 51 15 15 12 32 21 39 21 7 0 25 10 40 21 l27 22 -32 13 c-28 12 -33
12 -53 -6 -11 -11 -28 -20 -38 -20 -9 0 -22 -7 -29 -15 -8 -10 -23 -14 -39
-11 -14 3 -35 7 -46 8 -33 5 -116 95 -121 133 -6 37 -18 55 -39 55 -13 0 -26
7 -29 16 -3 8 -10 12 -16 9 -5 -3 -10 -2 -10 2 0 5 -7 18 -15 29 -15 18 -15
18 -9 -7 8 -39 -12 -45 -55 -15 -46 32 -79 34 -90 4 -6 -18 -9 -19 -14 -5 -4
10 -17 17 -30 17 -14 0 -44 7 -67 15 -50 18 -87 20 -52 3z m399 -228 c7 0 13
-6 13 -13 0 -8 12 -20 26 -28 14 -7 30 -24 35 -37 5 -13 13 -20 19 -17 5 3 12
-6 16 -20 3 -14 12 -25 20 -25 8 0 14 -4 14 -9 0 -5 6 -16 14 -24 8 -8 16 -23
18 -33 3 -20 11 -33 39 -62 24 -25 27 -44 14 -77 -7 -16 -10 -36 -7 -44 3 -8
0 -11 -7 -7 -6 4 -11 14 -11 23 0 36 -42 101 -86 134 -25 19 -55 51 -65 71
-28 54 -65 109 -96 142 -16 16 -20 24 -10 17 15 -12 17 -10 18 20 0 32 1 33
11 12 6 -13 17 -23 25 -23z m-50 -57 c37 -33 54 -78 42 -112 -8 -23 -8 -35 0
-45 8 -10 8 -16 -4 -26 -14 -11 -33 -10 -82 6 -13 4 -11 0 7 -15 14 -11 20
-21 13 -21 -20 0 -63 22 -58 31 3 4 -4 5 -15 2 -21 -6 -114 38 -141 66 -14 14
-12 17 24 33 22 10 43 18 49 18 5 0 18 8 29 18 11 11 37 25 59 32 22 7 40 17
40 22 0 13 15 9 37 -9z m473 -594 c0 -13 -67 -148 -83 -168 -11 -13 -88 -11
-191 5 -30 5 -41 3 -48 -10 -5 -9 -13 -16 -18 -16 -13 0 1 43 20 60 11 10 15
26 13 45 -3 23 3 37 22 55 23 22 29 23 58 12 45 -16 72 -15 87 3 14 17 79 11
91 -8 9 -13 29 0 29 19 0 8 5 14 10 14 6 0 10 -5 10 -11z m-477 -141 c-8 -31
-22 -48 -42 -48 -20 0 -52 -55 -45 -75 11 -28 -37 -1 -54 31 -10 16 -20 31
-23 34 -22 18 -27 47 -11 67 36 44 78 59 110 40 8 -6 12 -1 13 15 l0 23 9 -22
c13 -32 17 -29 13 10 -4 31 -4 31 16 -10 11 -24 17 -52 14 -65z m-698 -210
c10 -29 24 -60 31 -69 8 -8 14 -24 14 -35 0 -11 7 -29 15 -40 13 -20 12 -22
-11 -33 -21 -9 -37 -8 -87 10 -65 23 -92 39 -66 39 8 0 24 6 35 14 18 14 18
15 -8 25 -16 6 -28 16 -28 23 1 23 56 93 73 92 9 -1 13 4 10 12 -3 8 -3 14 0
14 3 0 13 -24 22 -52z m739 -5 c15 -8 18 -17 13 -41 -4 -20 -2 -36 7 -45 7 -7
17 -24 21 -37 4 -14 12 -31 17 -37 8 -10 1 -13 -31 -13 -22 0 -41 5 -41 10 0
7 -21 9 -62 4 -45 -5 -68 -13 -85 -31 -13 -12 -32 -23 -43 -23 -12 0 -21 -10
-25 -29 -3 -16 -13 -35 -21 -41 -8 -8 -12 -21 -8 -36 6 -24 6 -24 -28 -9 -19
7 -44 11 -56 8 -12 -3 -30 -2 -39 3 -38 16 -75 10 -84 -15 -8 -20 -14 -22 -41
-17 -17 3 -42 17 -56 31 -13 14 -36 25 -49 25 -32 0 -73 24 -98 58 l-20 27 27
-17 c23 -15 28 -15 38 -2 11 12 10 13 -4 8 -12 -5 -15 -2 -10 10 3 9 10 16 15
16 5 0 9 7 9 16 0 10 6 14 14 11 8 -3 19 0 25 6 6 8 45 13 102 15 103 4 129
12 129 45 1 40 21 53 80 52 45 -1 61 4 90 26 19 15 44 29 55 31 35 8 139 2
159 -9z m-301 -787 c65 -28 103 -71 85 -94 -12 -13 -13 -13 -16 1 -2 10 -8 17
-13 17 -5 0 -9 5 -9 11 0 5 5 7 12 3 6 -4 8 -3 5 3 -12 20 -56 11 -72 -14 -16
-23 -15 -25 4 -30 27 -7 71 -76 71 -111 0 -16 -11 -50 -24 -75 -14 -25 -22
-54 -19 -65 2 -11 0 -23 -5 -26 -6 -4 -8 3 -4 16 3 13 1 19 -5 15 -12 -7 -30
-97 -32 -155 -1 -14 -5 -20 -12 -17 -6 4 -8 12 -6 19 3 6 -1 16 -8 22 -9 9
-15 7 -24 -8 -11 -18 -14 -19 -30 -4 -10 9 -23 16 -30 16 -19 0 -8 24 16 34
17 8 20 16 16 42 -4 25 -1 33 12 36 10 1 23 19 29 38 11 34 17 37 61 29 19 -4
20 2 21 71 0 76 -8 110 -27 110 -6 0 -24 14 -41 30 -37 37 -58 39 -58 4 0 -19
4 -25 15 -20 8 3 21 8 28 11 14 6 37 -46 37 -83 0 -23 -35 -52 -63 -52 -14 0
-17 -5 -11 -22 4 -13 12 -26 17 -30 8 -5 7 -14 -2 -32 -11 -21 -20 -24 -56
-23 -26 1 -41 6 -37 12 4 5 7 12 7 15 1 3 5 15 9 28 5 15 3 29 -5 38 -11 14
-9 15 20 11 32 -5 32 -5 16 13 -10 11 -15 26 -12 34 3 8 1 30 -5 50 -11 33 -9
37 18 58 15 13 42 28 58 33 36 12 42 27 21 49 -22 21 -15 20 48 -8z m406 -96
l54 -13 -27 -16 c-30 -18 -31 -44 -1 -49 17 -3 17 -1 5 7 -13 10 -13 11 0 11
8 0 21 -9 28 -21 7 -11 19 -19 25 -16 7 3 18 -6 24 -20 14 -30 -1 -38 -53 -29
-25 5 -34 12 -32 24 7 45 -57 60 -85 20 l-16 -23 -31 33 c-16 18 -30 40 -30
49 0 15 2 14 15 -3 14 -18 14 -17 5 10 -11 30 -6 61 8 52 4 -2 14 -1 22 4 8 5
19 5 25 1 5 -5 34 -14 64 -21z"/>
<path d="M5945 2800 c-4 -6 5 -35 18 -64 25 -53 63 -86 102 -86 8 0 23 -9 32
-20 21 -24 38 -26 29 -3 -4 9 4 5 19 -11 14 -15 25 -29 25 -32 0 -11 28 -33
34 -27 3 3 15 -6 27 -20 34 -45 42 -30 9 17 -16 25 -30 49 -30 54 0 5 -14 12
-32 16 -17 3 -28 9 -25 13 4 3 2 13 -5 20 -9 11 -9 16 2 23 8 5 12 10 10 12
-3 2 -21 12 -40 22 -19 11 -58 37 -87 58 -53 39 -77 46 -88 28z"/>
<path d="M2799 2594 c-8 -9 -31 -25 -51 -34 -21 -9 -59 -36 -85 -59 -40 -37
-44 -44 -30 -53 9 -5 17 -17 17 -27 0 -24 24 -44 47 -39 10 2 23 -2 28 -9 12
-15 37 -21 111 -25 l54 -3 -6 -35 c-4 -19 -11 -45 -15 -58 -12 -31 -12 -92 0
-73 12 19 32 4 27 -22 -1 -12 -1 -16 1 -9 3 8 11 11 19 8 8 -3 14 1 14 9 0 8
5 15 10 15 6 0 10 -6 10 -12 0 -9 4 -8 10 2 7 12 10 12 10 1 0 -7 6 -11 14 -8
12 5 14 -3 10 -36 -3 -23 -5 -58 -4 -79 0 -28 -5 -41 -25 -56 -14 -12 -27 -29
-28 -40 -2 -26 32 -112 44 -112 6 0 7 5 4 10 -3 6 4 10 17 10 13 0 33 7 45 15
20 14 20 17 6 57 -15 45 -13 84 8 158 15 50 40 83 46 63 4 -10 11 -9 33 2 35
18 44 19 34 4 -4 -7 0 -9 12 -6 11 3 43 11 72 17 28 7 52 16 52 21 0 5 10 9
23 10 13 1 6 5 -18 11 -96 23 -142 39 -174 59 l-35 21 25 18 c23 18 23 19 4
25 -122 40 -250 116 -250 150 0 11 -8 27 -17 35 -10 8 -26 32 -36 53 -17 35
-20 37 -33 21z"/>
<path d="M1384 2191 c-9 -21 -26 -43 -38 -49 -27 -12 -134 -4 -168 13 -22 11
-37 10 -90 -2 -35 -8 -78 -17 -95 -20 -24 -4 -33 -11 -33 -24 0 -10 5 -19 10
-19 19 0 10 -18 -25 -51 -35 -34 -47 -66 -21 -56 23 9 25 -35 3 -60 -20 -22
-16 -43 7 -43 8 0 19 7 26 15 19 22 48 18 62 -9 11 -19 17 -22 36 -15 12 5 22
13 22 18 0 5 14 9 30 9 46 -2 46 9 0 17 -23 4 -44 14 -47 22 -3 8 -11 12 -19
9 -7 -3 -18 2 -24 10 -10 12 -7 14 21 15 19 1 26 3 17 6 -10 2 -18 13 -18 24
0 15 -7 19 -31 19 -21 0 -29 4 -25 13 3 6 9 20 12 29 8 23 41 27 84 10 24 -10
39 -11 51 -4 12 8 20 7 28 -1 9 -9 15 -8 22 6 6 10 22 17 39 17 30 0 41 -14
18 -23 -9 -4 -8 -6 3 -6 8 -1 19 3 25 8 11 12 49 -18 49 -39 0 -8 10 -16 23
-18 15 -2 22 2 22 12 0 9 -4 16 -9 16 -5 0 -12 8 -15 18 -2 9 -7 27 -11 40 -5
18 -2 22 17 22 13 0 33 6 44 14 11 8 29 16 41 18 19 3 20 6 9 37 -16 48 -31
49 -52 2z"/>
<path d="M6950 902 c-44 -5 -72 -29 -64 -54 3 -10 0 -25 -6 -33 -6 -8 -9 -19
-5 -25 3 -5 1 -10 -4 -10 -18 0 -12 -27 14 -66 29 -42 31 -39 10 13 -8 20 -13
38 -11 41 9 8 44 -73 51 -118 10 -63 24 -84 26 -40 1 19 2 47 3 61 2 33 41 86
69 95 43 13 50 63 14 105 -25 30 -48 37 -97 31z"/>
<path d="M3399 768 c-18 -34 -89 -98 -113 -102 -12 -2 -43 -10 -71 -17 -27 -7
-74 -12 -102 -11 -29 0 -53 -3 -53 -8 0 -9 36 -16 127 -26 58 -6 65 -5 109 25
56 37 80 38 165 10 36 -11 82 -19 107 -17 23 2 42 0 42 -4 0 -5 7 -8 15 -8 8
0 15 -6 16 -12 1 -32 8 -71 13 -75 5 -6 13 -2 56 22 l25 15 -37 0 c-34 0 -38
3 -38 25 0 28 8 30 44 13 21 -9 32 -8 59 6 30 17 35 17 71 2 53 -22 73 -20 92
9 12 19 25 25 51 25 27 0 46 9 76 37 23 20 42 42 43 47 1 6 6 20 10 30 6 16 4
18 -12 11 -10 -4 -50 -16 -89 -26 -55 -15 -81 -17 -120 -10 -27 6 -79 9 -115
7 -36 -1 -78 3 -95 9 -16 7 -44 15 -62 18 l-32 6 36 -60 c40 -66 39 -86 0 -39
-14 16 -29 30 -32 30 -4 0 -30 20 -57 45 -59 53 -109 62 -129 23z"/>
<path d="M7686 727 c-17 -13 -17 -15 -2 -46 9 -17 29 -36 44 -42 39 -15 62
-39 62 -65 0 -13 9 -47 21 -76 18 -45 19 -59 9 -90 -6 -21 -14 -38 -18 -38 -8
0 -24 -29 -61 -111 -25 -54 -26 -66 -6 -49 8 7 15 18 15 25 0 8 10 26 23 42
12 15 29 40 37 56 8 16 16 23 20 16 5 -7 9 -5 13 5 9 23 30 20 57 -9 l24 -25
23 27 c26 33 28 43 9 43 -23 0 -106 149 -106 190 0 53 11 85 22 68 7 -10 11
-10 14 -1 3 7 11 10 19 7 7 -3 16 -1 20 5 3 6 -1 11 -10 11 -8 0 -20 11 -25
25 -12 31 -30 33 -23 3 5 -21 3 -20 -19 5 -20 25 -33 30 -84 33 -40 3 -66 0
-78 -9z"/>
<path d="M1855 580 c-48 -40 -65 -49 -87 -44 -15 3 -40 -2 -57 -11 -61 -31
-279 -19 -302 16 -8 11 -13 10 -27 -7 -13 -16 -23 -19 -40 -13 -12 5 -22 16
-22 24 0 11 -6 15 -17 11 -10 -3 -31 1 -47 9 -33 18 -36 18 -36 5 0 -5 11 -12
24 -16 31 -7 116 -88 116 -110 0 -9 -9 -27 -20 -41 -27 -35 -25 -47 4 -28 21
14 24 14 30 0 15 -40 -10 -125 -37 -125 -7 -1 -3 -6 8 -13 11 -7 21 -20 22
-31 1 -13 -2 -15 -10 -7 -23 23 -24 9 -3 -32 17 -32 29 -43 51 -45 18 -2 31 2
37 12 12 22 25 20 31 -4 4 -16 14 -20 46 -20 44 0 53 13 23 31 -22 14 -18 59
4 59 18 0 18 10 -1 24 -23 17 -23 122 0 144 17 16 17 16 12 -5 -3 -15 -1 -20
9 -16 8 3 14 -1 14 -8 0 -9 3 -10 11 -2 6 6 26 9 45 6 19 -3 34 0 34 5 0 9 48
7 82 -4 10 -3 18 -1 18 4 0 17 -35 40 -65 44 -42 4 -38 28 9 44 36 13 102 61
151 109 38 38 96 9 88 -44 l-4 -26 14 24 c12 21 12 28 0 50 -7 14 -18 38 -23
54 -5 15 -13 27 -17 26 -5 0 -35 -22 -68 -49z"/>
<path d="M3432 568 c-18 -11 -39 -33 -48 -49 -10 -19 -22 -29 -38 -29 -12 0
-30 -8 -40 -19 -14 -15 -14 -20 -3 -30 16 -13 104 -41 130 -41 10 0 33 -7 53
-15 19 -8 38 -14 41 -15 6 0 7 125 3 213 0 14 -66 5 -98 -15z"/>
<path d="M3747 559 c10 -10 9 -17 -6 -33 -11 -12 -20 -25 -21 -31 0 -5 -11
-13 -24 -16 -13 -4 -34 -17 -46 -29 l-23 -23 49 8 c27 4 61 16 77 27 22 16 43
20 85 19 68 -2 83 -4 100 -15 18 -11 -10 -42 -45 -51 -23 -5 -24 -7 -10 -28
16 -24 77 -33 111 -15 47 25 77 64 83 106 3 23 2 42 -3 42 -5 0 -33 -9 -62
-20 -29 -11 -57 -20 -62 -20 -11 0 25 55 50 78 13 12 12 13 -5 7 -11 -4 -33
-9 -48 -11 -16 -2 -32 -6 -36 -8 -7 -5 -87 6 -146 20 -25 5 -28 4 -18 -7z"/>
<path d="M2699 523 c-24 -67 -33 -85 -48 -96 -21 -15 -24 -47 -10 -114 8 -43
16 -56 44 -73 18 -11 35 -26 38 -33 2 -6 6 -2 9 11 4 13 -1 31 -13 45 -15 20
-17 34 -11 88 7 62 8 64 35 61 19 -2 27 2 27 13 0 8 -7 15 -15 15 -8 0 -15 4
-15 9 0 5 18 7 40 4 30 -4 45 -1 60 12 11 10 34 18 50 18 50 0 18 18 -77 43
-48 13 -91 23 -96 24 -4 0 -12 -12 -18 -27z"/>
<path d="M4124 463 c-13 -14 -24 -32 -24 -40 0 -8 -4 -11 -10 -8 -5 3 -10 2
-10 -2 0 -5 -22 -32 -49 -61 -55 -59 -71 -62 -136 -29 -35 17 -45 27 -45 48
l0 27 -61 -25 c-33 -13 -82 -28 -108 -32 -28 -4 -57 -17 -70 -30 -12 -12 -28
-21 -34 -18 -7 2 -20 -5 -29 -15 -17 -17 -16 -18 28 -18 48 0 48 0 27 -57 -3
-8 4 -13 18 -13 80 -1 244 -10 276 -15 l38 -6 -30 23 c-60 47 -80 66 -73 73 4
4 24 -7 43 -24 l36 -32 37 23 c74 45 101 70 117 113 10 24 27 52 39 63 11 12
27 28 35 38 14 16 16 15 36 -10 21 -26 22 -26 56 -12 28 13 30 15 11 16 -13 0
-22 6 -21 13 3 28 -3 34 -37 35 -27 1 -42 -5 -60 -25z"/>
<path d="M3330 355 c0 -22 81 -95 105 -95 36 0 71 19 86 47 12 23 11 27 -10
44 -20 16 -37 19 -102 17 -47 -2 -79 -7 -79 -13z"/>
<path d="M4270 351 c-58 -15 -65 -20 -68 -44 -2 -15 -13 -32 -25 -39 -26 -14
-47 -34 -47 -45 0 -4 -23 -23 -50 -42 -28 -19 -49 -39 -47 -45 2 -6 18 -13 35
-17 17 -3 43 -14 56 -23 36 -23 55 -20 61 9 3 14 7 37 10 51 9 40 44 86 94
124 70 52 81 66 68 79 -6 6 -13 10 -16 10 -4 -1 -35 -9 -71 -18z"/>
<path d="M3270 290 c0 -5 7 -10 15 -10 22 0 18 -33 -5 -53 -19 -16 -20 -16
-20 1 -1 13 -3 12 -13 -6 -7 -12 -17 -19 -21 -15 -5 4 -4 -2 3 -14 15 -29 14
-33 -8 -33 -10 0 -35 -7 -55 -15 -30 -13 -36 -20 -31 -35 5 -15 2 -20 -12 -20
-15 0 -16 -2 -3 -10 12 -8 10 -10 -9 -10 -14 0 -38 -4 -55 -9 -103 -31 -136
-38 -136 -30 0 15 -37 10 -43 -5 -3 -8 -3 -17 0 -20 4 -3 52 -6 108 -6 97 0
103 1 126 26 27 30 98 84 109 84 4 0 10 -10 14 -22 4 -18 8 -20 18 -10 9 9 10
17 2 30 -15 25 0 81 30 109 14 13 26 30 26 38 0 7 3 20 6 29 5 12 0 16 -20 16
-14 0 -26 -4 -26 -10z"/>
</g>
</svg>
